/* XPM */
static char *bluestone[] = {
/* columns rows colors chars-per-pixel */
"64 64 153 2 ",
"   c #010202",
".  c #080000",
"X  c #010900",
"o  c #0B0B03",
"O  c #01010B",
"+  c #0B040B",
"@  c #020A0C",
"#  c #100003",
"$  c #1A1C04",
"%  c #020213",
"&  c #0E0017",
"*  c #020911",
"=  c #151D17",
"-  c #1C1C14",
";  c #1D1E1C",
":  c #201E0F",
">  c #241D16",
",  c #201719",
"<  c #211F1D",
"1  c #2C1F1D",
"2  c #1B2407",
"3  c #1E210F",
"4  c #162214",
"5  c #1D2314",
"6  c #15221A",
"7  c #1D221C",
"8  c #1E2919",
"9  c #202705",
"0  c #22210F",
"q  c #222316",
"w  c #292317",
"e  c #21221C",
"r  c #2C261E",
"t  c #23281B",
"y  c #161C23",
"u  c #1D1E23",
"i  c #1E1E2A",
"p  c #020335",
"a  c #01023C",
"s  c #03083F",
"d  c #121933",
"f  c #221E24",
"g  c #281B22",
"h  c #231E2B",
"j  c #221F31",
"k  c #172123",
"l  c #1C2223",
"z  c #1E2823",
"x  c #1E212B",
"c  c #1F2928",
"v  c #1F2231",
"b  c #222223",
"n  c #2A2223",
"m  c #222922",
"M  c #22232B",
"N  c #2C262A",
"B  c #2D2D2B",
"V  c #353C2C",
"C  c #212030",
"Z  c #2F2C37",
"A  c #2F2E3E",
"S  c #2D3037",
"D  c #2E373C",
"F  c #343237",
"G  c #3D3737",
"H  c #39353B",
"J  c #363B3E",
"K  c #3B393E",
"L  c #020243",
"P  c #090146",
"I  c #02024C",
"U  c #010A4A",
"Y  c #010254",
"T  c #010A54",
"R  c #01015C",
"E  c #08055E",
"W  c #00085B",
"Q  c #302D40",
"!  c #020163",
"~  c #090466",
"^  c #000864",
"/  c #090865",
"(  c #01026C",
")  c #0A036B",
"_  c #02096B",
"`  c #0A096F",
"'  c #010274",
"]  c #080273",
"[  c #020A73",
"{  c #01027C",
"}  c #09027A",
"|  c #04097C",
" . c #09087D",
".. c #4E4F4A",
"X. c #455646",
"o. c #475349",
"O. c #4C544B",
"+. c #52554D",
"@. c #5B564F",
"#. c #52594C",
"$. c #4B4F54",
"%. c #534D5B",
"&. c #4A5455",
"*. c #4C535B",
"=. c #535553",
"-. c #5C5453",
";. c #575852",
":. c #54535B",
">. c #5A515D",
",. c #635353",
"<. c #5B5362",
"1. c #655261",
"2. c #020283",
"3. c #0A0184",
"4. c #020984",
"5. c #0A0B83",
"6. c #02028B",
"7. c #0B008B",
"8. c #01098C",
"9. c #100881",
"0. c #010194",
"q. c #090394",
"w. c #0B0A92",
"e. c #02019C",
"r. c #09029C",
"t. c #01089C",
"y. c #08089C",
"u. c #0201A4",
"i. c #0902A3",
"p. c #0009A2",
"a. c #080DA7",
"s. c #0201AB",
"d. c #0902AC",
"f. c #0201B3",
"g. c #0902B4",
"h. c #0709B3",
"j. c #0809B1",
"k. c #0201BB",
"l. c #0B02BA",
"z. c #0708BB",
"x. c #0200C3",
"c. c #0902C4",
"v. c #0309C3",
"b. c #0808C2",
"n. c #0200CA",
"m. c #0800CB",
"M. c #0008C9",
"N. c #1701C8",
"B. c #0300D3",
"V. c #0A03D3",
"C. c #0400DB",
"Z. c #0400E4",
"A. c #4747FF",
/* pixels */
"K ' ' { 8.{ 2.{ { { ' 8.' { 2.{ { ' ( { 0.' J H 2.8.8.2.8.0.8.2.{ 2.8.2.2.{ 2.8.0.8.2.8.8.2.8.8.2.0.2.8.J G { { 2.{ { 2.2.' _ B ",
"7 e.s.i.e.s.e.d.s.i.0.s.e.e.s.e.g.s.g.8.i.e.l n g.x.k.g.k.x.k.k.k.x.k.k.k.x.x.k.s.g.c.g.g.k.g.k.x.g.g.g.3 w i.s.g.s.i.s.g.s.s.g ",
"X s.i.e.0.e.' s.s.8.{ i.e.2.0.i.' i.{ ` { I X > k.g.k.s.8.i.k.8.' { 8.e.i.e.8.' 8.i.s.k.2.e.e.x.x.e.e.{ % - k.k.i.0.i.s.s.i.2.@ ",
"O s.e.2.0.0.8.e.2.2.i.e.e.( e.i.' ^ 2.{ ^ ' O h k.k.e.e.s.8.{ i.Y ^ R Y { g.e.R ) ~ ~ ' ' ^ ] 3.0.( ^ ' X n k.s.i.g.2.i.g.e.R X ",
"X g.8.i.^ x.V.0.2.{ 2.8.8.2.{ Y R 2.{ R R ~ O r X X X X X X X X % X X X X X X X X O X X X X X X X X O O X : g.i.g.g.k.g.8.{ 2.X ",
"X i.' { s.n.n.( ( ' 2.s.e.0.0.8.^ ( ' Y I I X g s.i.s.k.s.i.i.s.s.e.e.s.s.s.s.g.s.e.g.= 2 ; i l M i e - r g i.g.s.i.i.` 8.^ R X ",
"X g.i.e.k.p.i.e.i.0.i.e.s.0.e.' ' ^ ~ ^ ( ^ X h i.g.k.k.s.i.i.e.g.0.0.s.i.8.e.n.g.i.i.O ; d.i.i.r.0.r.^ i < g.e.0.i.2.{ 0.Y R X ",
"X i.i.e.i.s.g.i.e.2.^ i.0.e.8.8.{ R R ^ L L X < i.s.k.C.B.s.i.g.s.e.0.e.s.s.s.e.i.i.e.X n s.i.8.0.0.{ R X h s.0.0.i.{ 2.2.0.^ X ",
"X d.e.2.0.e.e.2.0.{ e.2.( 8.0.2.' { 2.^ Y p O < s.s.x.x.k.e.i.s.i.x.e.0.s.{ e.{ e.i.{ X 7 g.i.0.0.{ 2.( X e x.x.e.e.s.8.2.2.p O ",
"X 0.0.{ 8.s.{ 2.[ e.i.' Y ^ R ( R { ' { Y L X > i.s.k.k.e.0.e.i.i.8.e.i.i.{ ( { { 2.R X 7 s.e.0.{ ' R Y X M s.' 2.0.i.s.e.^ p O ",
"X 0.' 2.i.2.e.' e.s.i.( ^ Y R ( Y ^ 2.8.Y L X j s.s.k.e.s.e.s.s.n.x.g.e.( ^ 2.2.{ ( ^ X l s.0.e.[ i.' R X j x.{ g.i.{ 0.0.R p X ",
"X e.0.0.' { e.7.( { Y { ' Y ( ' I R p L ^ p X g s.k.i.e.g.k.s.s.x.i.i.s.' R ( i.R ( I X g 0.8.2.0.{ ( R X u k.g.8.' ^ ( 2.{ L X ",
"O 0.{ 0.2.( 2.2.' R ' R { ^ L ' ^ I L p R Y X 7 e.s.g.s.e.s.e.0.i.g.g.i.0.0.' 2.Y Y Y X g s.8.8.2.{ ' R X > g.2.' ( ( R ' 8.L X ",
"X e.e.) { { ' R ( Y ^ 8.( ( ^ p I ' I Y R L X x i.g.C.x.0.2.e.0.2.' { { { 0.8.2.^ ( R X i i.e.8.{ { ( R X j x.3.{ ] R Y R R p % ",
"O d.8.7.) ^ { ( ' ) L p I L I p L L p I p L O g s.x.x.B.8.8.8.i.s.' 8.2.2.8.' ' ^ R I X 7 e.8.8.e.T Y ^ X , @ X X O X X X X X X ",
"X O X O X X X X X X X % X X O O X X O X X O X 7 e.g.i.i.0.8.2.s.i.s.8.2.e.^ ^ { ^ Y p X i i.e.s.d.e.Y ( X 1 k n g g < > i i i g ",
"i.x.s.s.s.e.i.s.e.g.k.i.s.e.s.X g.s.i.s.i.i.e.X s.s.0.e.8.e.i.i.s.e.{ 0.0.2.{ Y ^ p I X ; 0.i.e.s.r.R ( X g i.i.g.e.X k.k.k.k.k.",
"k.s.s.8.e.g.k.e.2.e.i.2.0.0.{ % g.g.0.k.s.8.k.X e.g.e.p.k.g.0.s.i.e.2.^ ( ( I L ^ I p X k i.i.' ( 8.' R X i e.g.2.4.X n.k.i.s.x.",
"g.s.8.0.0.s.s.2.2.0.0.{ { e.0.X g.n.x.g.e.2.' X i.g.i.s.x.i.8.' 2.8.3.2.2.^ I p ' p I O 5 e.2.Y I E ( p O i e.g.g.' X s.i.k.s.p.",
"g.g.e.g.k.i.0.{ 8.[ e.' ' { 2.X s.k.i.i.0.e.( O 0.s.s.i.0.[ i.2.2.^ ( ^ Y R Y ^ E ^ p O x e.{ Y ~ I Y a X w i.2.2.U % B.k.k.s.k.",
"i.8.e.g.s.s.2.( e.i.{ e.^ ' 3.X i.x.0.{ e.0.R X s.s.e.0.i.0.e.2.R Y ' ^ R ( ^ R L L p X x 0.{ ' R ^ I L X ; i.^ R ^ X g.k.s.s.h.",
"e.s.{ 0.g.B.2.0.' ( ^ ^ ^ { 8.X k.8.k.' { { ^ X O X O X O O X X X O X X X X X X X X O X $ X % X & X + X X + X X X * - v.k.s.i.0.",
"s.8.{ 0.8.i.i.2.2.0.' ] ' ^ R O g.i.0.( { { ( X e g i ; 5 ; 6 ; i = - ; y 7 5 l l 7 h h N - i g ; s.k.p.g.g.x.g.N.d N g.e.i.e.e.",
"k.0.8.e.{ 0.' e.8.2.' ] ^ { ^ X s.x.0.2.R ^ R . 6 g.s.s.g.g.g.g.g.g.i.g.g.g.x.i.x.i.s.l.s.e.i.; e s.B.s.x.s.i.e.7.X e x.s.i.0.0.",
"k.i.8.8.g.s.2.e.0.{ ( ^ ( R R X i.g.{ 8.8.^ R X g s.g.g.g.g.x.g.g.k.s.g.s.x.s.4.i.k.s.k.2.e.^ X 7 g.n.g.x.x.s.i.2.X n g.k.s.0.e.",
"s.s.8.{ 2.s.g.( 8.e.8.8.( I R X i.{ Y { ' E R X h g.s.i.g.x.C.Z.k.B.C.t.g.i.e.g.s.i.i.s.s.2.L X 7 i.x.n.n.x.i.8.2.X l x.s.s.i.e.",
"s.e.2.2.i.s.i.s.2.3.0.8.' R Y O e.8.Y R Y I R X l k.g.s.k.x.C.Z.k.Z.Z.C.e.{ e.8.0.s.2.{ g.I I O i x.i.t.x.s.2.i.( X g x.x.g.s.i.",
"g.e.s.e.0.s.s.i.( ' ( ( ( Y Y X & X X X X X X % e g.x.k.g.g.n.x.i.i.C.B.i.i.{ 2.{ T s.' { R Y X l g.x.s.e.g.e.2.^ X ; k.x.g.s.g.",
"0.2.2.g.s.8.e.i.( ( R ^ Y L Y X g 6 y x M i 7 N 7 i.g.g.i.s.g.s.e.i.g.s.e.i.2.2.{ 2.2.Y ^ I ^ % 5 s.n.n.s.i.8.8.( X 7 g.i.s.x.g.",
"i.8.8.i.i.i.0.' ' R R R R Y Y X l k.g.s.k.s.t.= i s.s.s.k.s.0.{ i.x.g.4.e.s.' 2.0.8.' ' ( R R X 7 g.B.n.8.e.e.e.R X l k.s.s.g.0.",
"e.i.8.{ s.g.{ ' ^ ( Y ^ ( Y ^ X w k.s.2.0.r.2.o ; g.k.g.k.s.0.2.e.e.s.{ 0.i.s.' 8.2.R ^ ' ( I X y i.k.m.0.e.e.s.I O n k.g.e.e.2.",
"0.0.{ { 2.8.{ Y ^ ( ' ' R L L X g s.s.s.0.5.0.O e s.x.k.i.i.k.g.0.s.{ { { g.g.T R R Y ( ( ' L X 7 g.g.i.2.s.i.s.^ O e s.0.8.s.2.",
"e.2.s.8.( 8.' ' ^ ( { { ( R L X 7 s.e.e.8.( ^ X k g.k.i.{ e.g.d.k.0.' { ' ^ ^ { ( ^ p L R I p % h i.g.B.2.g.s.e.R O i g.8.2.{ ' ",
"8.e.i.8.8.{ ( ^ Y L Y ' R Y L O n x.s.2.g.2.Y X 4 g.p.s.g.4.s.s.e.{ ' { { ( ^ ' ( ^ Y p Y R p X w g.i.k.i.8.0.8.R X i g.k.{ 0.{ ",
"8.0.e.2.{ { ( ( L Y I Y Y R L X l k.k.s.2.( ( X 8 g.4.g.' i.e.' ' ^ ^ { 2.( ^ ^ E E ^ R ^ R L X l s.n.i.i.8.( ' ( X ; g.s.e.8.e.",
"2.8.2.' ( { 2.2.( R ^ R R ^ ^ X 7 s.e.g.0.R Y X 4 s.g.x.2.s.e.( ^ R ^ { } ( ^ ^ I Y Y Y I I Y X 7 x.x.i.e.2.r.^ ^ X < k.d.i.i.2.",
"( e.( ^ ' ( 2.{ Y ^ Y p Y ( R X x s.e.0.T 2.( X z x.e.[ g.g.{ ^ R R R ^ ( ^ R Y L I L p L L I X 5 i.x.e.2.0.e.{ ^ X 7 x.e.e.i.' ",
"{ 8.{ { ' ^ ( ^ R L p Y p L p X e g.e.e.k.^ ' X - * X % X X X X X X X X X X X X X X O X O X X . 5 g.g.i.2.' ' { ' X 7 x.q.0.8.2.",
"2.2.0.2.( ' ( R R R Y R I I p X i s.s.2.g.2.Y X r y = e e m 6 i < g l ; 7 l < g i 5 ; 7 7 5 h g i g.s.i.i.{ ^ ^ Y X g k.k.{ 8.' ",
"8.0.2.2.' ( 2.' p p L L L p I O 7 k.g.8.2.I ^ O k i.e.i.k.e.i.i.e.i.s.i.i.i.i.i.i.e.i.s.i.s.s.= 7 i.s.e.x.i.{ R p O l g.i.0.{ 8.",
"O O X X O X X X X X X X X O X . i s.g.{ { R Y X ; i.g.x.k.s.g.g.s.s.i.s.i.e.g.i.e.2.[ x.8.k.] X k i.n.i.i.l.2.Y I . < X X X X + ",
"e 5 l l i ~ I ' ( 8.2.2.{ { _ e 7 0.g.[ { { Y X 7 g.x.x.n.k.g.g.g.s.s.x.e.0.e.e.e.2.2.2.8.0.} X k g.8.i.s.8.8.R L X i 8.e.8.0.X ",
"; e.s.l.g.k.g.k.k.n.g.g.k.g.k.y x e.i.2.( { ^ O 7 g.x.c.n.k.k.k.s.k.x.k.{ 2.2.( s.i.s.i.0.{ ) O 7 s.x.s.8.( Y E L X 7 0.e.2.' X ",
"l g.k.s.n.x.k.h.s.k.x.s.g.s.s.X 7 s.i.e.R R ( X i s.x.x.k.x.B.n.s.g.s.[ ' { ' 8.{ 0.[ ' ( 0.^ X 2 r.g.{ ^ ( Y ^ p . l i.} ^ ^ . ",
"5 a.n.s.k.B.n.s.g.g.s.0.e.s.c.O M e.e.8.R R ^ X h i.g.k.g.k.B.C.n.2.i.e.2.' 2.( ' 0.2.{ ' 2.^ X ; i.k.' Y ( Y R I X l 0.{ ' Y X ",
"; n.h.k.s.x.C.x.0.i.8.k.k.e.g.X , % X X X X X X l s.s.s.k.s.k.B.C.k.i.i.0.8.( ( R ^ ^ ( 8.2.R X m 7.2.' R R ^ ( L X z { { { Y O ",
"w g.t.t.i.s.k.g.e.e.0.x.s.[ 8.X n ; 6 7 M n g , n i.i.k.x.i.i.k.s.g.s.s.0.e.8.' ^ ( ( Y Y R Y X - % O X X O X O X . i { { Y R X ",
"j k.k.k.i.2.g.i.e.e.8.g.g.x.e.X y g.g.g.x.e.e.6 x 8.s.B.x.0.8.e.s.i.i.e.8.{ e.2.( ^ ' R R p P X r i 7 g > h < < g g < 7 j = w & ",
"< x.x.0.s.k.g.2.0.g.g.g.{ s.e.X 7 k.2.g.2.0.2.O i e.g.x.k.g.i.e.k.x.g.i.{ 2.{ ' R Y R ^ Y L L X < g.s.x.i.k.x.x.k.x.k.g.k.k.k.O ",
"; l.k.h.z.8.8.x.2.g.{ 2.0.0.i.O C k.s.s.k.8.{ O i e.s.s.i.s.s.s.k.k.k.g.e.2.0.( ^ ^ ^ ^ ( ^ I X g s.s.i.i.s.s.s.s.s.e.s.g.i.{ X ",
"7 x.i.x.e.t.i.x.g.0.8.U ' s.i.X 8 s.g.2.i.2.' X i s.x.i.e.s.i.i.s.x.k.k.i.s.s.I Y Y ^ ^ ( ' ~ X l s.i.s.B.C.g.i.s.0.e.i.s.0.{ X ",
"x g.h.e.i.x.B.v.s.2.i.' ' e.g.X x k.s.i.i.2.i.O ; e.x.k.e.i.s.0.0.x.x.k.e.s.i.( R Y ^ R Y I Y X n g.x.x.C.B.x.g.k.[ 8.s.e.{ ^ O ",
"l g.s.z.e.Z.A.C.i.0.e.e.r.2.2.O x s.g.e.2.e.' O ; e.s.s.e.8.2.8.2.4.e.8.i.2.' 2.^ R Y I Y L L % i i.0.s.e.B.x.k.k.i.0.2.{ ' R X ",
"l g.s.g.g.k.V.k.e.{ i.s.I L ^ X y g.i.g.s.{ R X l g.i.g.g.2.2.' ( ' 8.2.{ ^ Y e.e.' ^ R Y L p X i g.g.s.4.0.i.i.s.2.2.{ ' R ^ X ",
"; g.i.x.s.h.k.4.2.0.{ ' Y I ^ X l k.k.g.i.8.^ X e i.0.B.k.0.n.[ { 2.2.8.2.{ R q.e.{ ' ( R Y R X 7 g.s.g.0.i.e.e.{ ( ^ } Y Y ~ X ",
"l e.x.k.s.e.2.{ 0.s.0.q.2.R ^ + 6 g.k.i.[ 0.{ X h e.i.0.i.g.e.0.2.( ( 2.2.Y Y { 0.0.8.( ^ Y I X ; g.g.e.e.0.e.i.' ' ^ { 2.Y ^ X ",
"l g.i.g.s.2.8.d.( s.s.7.( 2.~ O x g.s.k.2.{ ' X i s.g.i.s.s.e.8.s.i.[ ( R ' R Y { { 2.~ Y Y P X l g.s.k.s.2.x.e.0.{ ( 2.i.R L X ",
"7 x.e.x.i.i.8.( ' 8.e.i.0.' R X 6 x.g.i.R ^ ' X 7 i.i.s.8.8.{ 8.s.s.i.( ( ( ' Y I I R R L p P X 7 s.k.g.0.i.g.s.s.e.8.0.e.{ I X ",
"7 s.s.2.8.2.i.{ I ^ 8.0.e.' ( X 6 g.g.i.' ( R X = i.g.i.8.i.g.e.( 0.i.R ^ ( 2.Y R p p Y Y p I X n x.g.g.[ s.g.g.g.0.{ 2.2.{ p X ",
"i g.i.( R 0.^ e.2.] e.~ R Y ^ X l g.s.( Y ' R . l s.g.n.[ s.C.i.R ^ ( ( Y I I Y I L p L R I I X n x.g.e.k.d.0.{ 8.^ ( { ( R P . ",
"- i.e.0.2.( 3.Y ( I ( ( ( ' ^ O ; s.s.2.( ) R O h i.e.i.x.e.3.0.R ( R ( I Y p p ' { R I I L P X 3 k.x.x.8.i.2.' { ' 2.' R I ) X ",
"t s.8.( 2.{ { 2.' ( R ] { { ' n z i.0.8.2.' ' 7 7 i.i.e.s.i.' ' 2.' ' { { ( R ^ 4.{ { ( R ^ ] C x z.s.0.' 0.i.{ { { 2.' ( _ 8.X ",
"Z q.8.3.2.{ 2.{ ] 2.{ 3.3.{  .A F 4.{ ' { 2.5.V F s.x.2.8.8.8.8.{ { 2.' 2.2.2.' ' R { 2.{ ' ` D Q v.8.3.{ 7.{ 2.' ( { 8.2.{ 9.i ",
",.o.&.-.=.+.+.O.:.=.-.+.+.+.&.-.1.O.#.=.=.-.&.>.1.O.*.+.%.-.-.=.:.=.O.=.=.#.=.-.>.-.<.=.=.:.%.@.,.X.+.-.:.-.+.+.:.+.+.:.#.+...G "
};
