/* XPM */
static char *colorstone[] = {
/* columns rows colors chars-per-pixel */
"64 64 218 2 ",
"   c #1E1E1E",
".  c #171B1C",
"X  c #3B2C0E",
"o  c #35280E",
"O  c #25231C",
"+  c #362C14",
"@  c #3C2D13",
"#  c #342C1A",
"$  c #3B2E1B",
"%  c #342714",
"&  c #3C3216",
"*  c #3C321C",
"=  c #363219",
"-  c #3D330F",
";  c #1D1F22",
":  c #1E2223",
">  c #242424",
",  c #262924",
"<  c #292A26",
"1  c #272B2B",
"2  c #2C2C2C",
"3  c #282529",
"4  c #342C21",
"5  c #3D2F23",
"6  c #312F2C",
"7  c #2E312C",
"8  c #3D3423",
"9  c #31302D",
"0  c #3B3429",
"q  c #2E2E31",
"w  c #312D32",
"e  c #2F3131",
"r  c #343434",
"t  c #393634",
"y  c #363935",
"u  c #393A35",
"i  c #3B363B",
"p  c #373A3A",
"a  c #3C3C3C",
"s  c #35363A",
"d  c #412D0E",
"f  c #44340D",
"g  c #4C350C",
"h  c #49390D",
"j  c #58380B",
"k  c #422E14",
"l  c #482F13",
"z  c #443415",
"x  c #4A3615",
"c  c #463815",
"v  c #4A3916",
"b  c #45341A",
"n  c #4A361B",
"m  c #45391B",
"M  c #4B3A1A",
"N  c #533B15",
"B  c #51351B",
"V  c #543C1C",
"C  c #5B3E1D",
"Z  c #563715",
"A  c #623B15",
"S  c #613E1B",
"D  c #6A3E17",
"F  c #603B0E",
"G  c #443623",
"H  c #443A23",
"J  c #4C3C23",
"K  c #4B3D2B",
"L  c #473926",
"P  c #533D23",
"I  c #5C3E21",
"U  c #5A3C29",
"Y  c #543D29",
"T  c #413E3C",
"R  c #463E35",
"E  c #613F22",
"W  c #3E403D",
"Q  c #4A4015",
"!  c #5D4316",
"~  c #5B411E",
"^  c #54431A",
"/  c #5E430C",
"(  c #624214",
")  c #63411C",
"_  c #6C461C",
"`  c #73481A",
"'  c #4C4127",
"]  c #544123",
"[  c #5D4121",
"{  c #53422C",
"}  c #5C432B",
"|  c #5D4A2A",
" . c #42423D",
".. c #4C453C",
"X. c #4A493C",
"o. c #494335",
"O. c #52463D",
"+. c #52493E",
"@. c #564937",
"#. c #624323",
"$. c #6B4623",
"%. c #6B4A25",
"&. c #6D4A2A",
"*. c #674928",
"=. c #744B27",
"-. c #79522C",
";. c #684C32",
":. c #695137",
">. c #725132",
",. c #6A502E",
"<. c #3D3E42",
"1. c #353743",
"2. c #413F41",
"3. c #3F4245",
"4. c #434343",
"5. c #4B4543",
"6. c #464944",
"7. c #4C4A45",
"8. c #45464A",
"9. c #494649",
"0. c #45494A",
"q. c #4B4B4B",
"w. c #514643",
"e. c #524B43",
"r. c #524C4B",
"t. c #4E524D",
"y. c #4A5449",
"u. c #53524D",
"i. c #5A544C",
"p. c #565547",
"a. c #4C4D51",
"s. c #434B54",
"d. c #514F52",
"f. c #4D5253",
"g. c #4E555B",
"h. c #545454",
"j. c #5A5553",
"k. c #555954",
"l. c #5A5A55",
"z. c #54545A",
"x. c #595758",
"c. c #55595A",
"v. c #5B5B5B",
"b. c #614E4C",
"n. c #64544A",
"m. c #645D55",
"M. c #625E5A",
"N. c #615350",
"B. c #5D625D",
"V. c #5D6057",
"C. c #6B6255",
"Z. c #64625C",
"A. c #69645C",
"S. c #63695F",
"D. c #736657",
"F. c #4B5462",
"G. c #5B5D61",
"H. c #525862",
"J. c #645E62",
"K. c #695F65",
"L. c #615F6C",
"P. c #5E6363",
"I. c #5C6668",
"U. c #5F6B72",
"Y. c #646464",
"T. c #6A6563",
"R. c #646865",
"E. c #696A66",
"W. c #64656A",
"Q. c #6A666A",
"!. c #6C6C6C",
"~. c #666A6C",
"^. c #726E6C",
"/. c #716B64",
"(. c #6C726F",
"). c #73726D",
"_. c #78756A",
"`. c #6D6D71",
"'. c #726E72",
"]. c #716770",
"[. c #6F7374",
"{. c #6E757D",
"}. c #737373",
"|. c #7B7976",
" X c #73747C",
".X c #7B767B",
"XX c #757B7D",
"oX c #7C7C7B",
"OX c #797675",
"+X c #855428",
"@X c #83532B",
"#X c #8C5119",
"$X c #837B7A",
"%X c #827974",
"&X c #7D807B",
"*X c #7E8075",
"=X c #80807E",
"-X c #747C83",
";X c #7C7C82",
":X c #7A7885",
">X c #827F81",
",X c #7B8184",
"<X c #748183",
"1X c #838384",
"2X c #8A8B84",
"3X c #8B8C8C",
"4X c #86858A",
"5X c #928E8C",
"6X c #8E908C",
"7X c #94928D",
"8X c #8E8C92",
"9X c #898B94",
"0X c #959595",
"qX c #9A999A",
"wX c #989597",
"eX c #908E91",
"rX c #9F9CA2",
"tX c #A8A7AB",
/* pixels */
"oX$XoXG N ! ( &.E E C S [ I [ C C ~ #.S C I P k B C ~ I Z U N J h.E..XXX}.!.!.).q 1 1 4 1 q w 6.R.!.x.Q.h.z.6.r.q.a.h.x.v.K.`.oX",
"oX}.!.i.m M C >.E C I I [ [ C C I I C C #.} P k l [ C } n N m u.K..X$XOXoX'.1X.Xq.1 < 1 6 1 6.E.!.x.R.q.r.q.z.h.v.K.K.R.R.R.R.`.",
"!.(.}.Z.u.o.B %.C I [ [ I [ [ C P P I C [ ] M m N C N P n X.c.Z.U.7.[ Z ) P 9.U.K.q.1 1 r 6.K.!.h.v.h.9.M.z.R.R.R.R.R.R.R.R.R.K.",
"c.).OX}.R.i.x %.~ [ ) I [ ) I [ N C #.~ C I N @ z N B M H.R.|.9.N ~ c m & M f f T.R.2.q.9.R.`.h.Q.W.T.R.x.R.v.h.q.q.q.q.q.q.q.0.",
"f.q.).}.XXv.M %.I [ [ [ C [ [ [ I C ~ ~ C P M @ M H c.V.$X|.q.U N M k n z m o n 7.|.[.W.R.).x.R.v.k.v.v.v.v.v.v.v.R.v.v.v.v.v.G.",
"a.q.h.`. X_.m N ~ ~ [ [ C C C I #.C ~ #.B k G L N.v.:X&XR.[ ) m n z J m m m k k 4 A.1XtX[.h.v.h.q.h.9.q.h.7.q.q.q.q.q.q.q.q.q.q.",
"r.u.q.h.`.oXi.H N C ~ [ [ C ~ #.I I ~ B z 8 o.y.M.4XXX9.~ x f h z M M z z @ J @ % A.tX:Xq.R.k.a.q.6.q.a.6.f.q.q.q.q.a.q.q.r.q.q.",
"q.7.0.y.h.'.$Xh.n N ~ [ [ C I C I I N z G i.R.W.<XZ.C C M H z M c c x x k k G @ = A.qXoXR.u.7.a.q.h.9.q.q.8.q.q.q.q.q.q.q.q.q.q.",
"q.q.q.q.6.h.oXR.j.G P ) F ( [ N B k G u.I.T.|.$X} { M M M z n M M @ m M $ @ m % # A.wXR.h.q.q.a.q.q.q.q.q.q.q.q.q.q.q.q.q.q.a.q.",
"0.h.q.9.q.0..XoXR.i.G P Z ~ Y G m j.K.%X.X,XQ.N { ' M c z M c M c z M z k X & @ 9 A.5XR.h.q.7.q.q.q.q.q.q.a.q.q.q.q.r.q.q.q.q.q.",
"r.8.h.q.6.9.}.oX1XZ.u.$ 5 G # ..y.T.>X>XR.7.P ~ M M x c M c c z c z M z m @ X * R R.2XR.x.q.9.a.q.0.q.q.q.q.q.q.q.q.a.q.q.q.q.q.",
"q.q.q.q.9.q.Q.'.`.1XZ.l.r.r.M.d.I.:X.XQ.K ~ B n N M x h M M M c m & c M m @ X $ q.Q.4XW.v.q.q.r.7.q.q.a.q.r.q.q.q.q.q.q.q.q.q.q.",
"q.q.h.q.9.y }.!.!.h.h.h.W.!.qX0X5X}.K.P ~ N Q I M M M n M c c c M X f M z X X % j.'.>XW.z.d.q.a.q.q.q.q.q.q.q.q.q.9.q.q.q.q.q.q.",
"q.q.q.6.r R.oXR.h.h.q.h.9.R.wX8X4XA.S N N N m B N M M x z c M z m o M M m @ = 4 v.}.>XR.d.q.q.q.q.q.q.q.q.q.q.q.q.q.6.9.6.q.q.q.",
"q.q.q.r R.>X!.c.h.h.h.x.9.6.}.4X:X| j x { J M z M M M z c x M z m @ n M n @ # o.!.|.:XR.u.q.q.q.q.q.q.q.q.q.q.q.q.q.9.8.6.q.q.q.",
"q.9.r R.oX.XR.h.h.h.q.h.9.q.6.W.i.P c I P M c h z M z M z M M M z @ x z M # # w.!.oX&XR.h.q.q.a.a.q.q.q.q.q.q.q.q.q.9.6.6.0.q.9.",
"8.R Z.<XXX(.T.z.h.h.h.x.2.q.d.q.K.^ g #.M f ] x c c c M M M M M @ @ n n c % < h.$XoX>Xh.a.q.q.q.q.q.q.q.q.q.q.q.q.y.a.f.0.0.q.a ",
"s W.Z.w.w.S.`.u.h.h.h.q.a v.h.R.T.' x [ z M z n M c z z z z z z $ @ m x @ # z C.| ] C.r.q.y.q.q.q.q.q.q.q.q.q.q.u.a.q.6.h.7.r T ",
"I.R.9.P N 9.Z.!.h.h.h.2.3.q.v.r.^.O.N N M c z M m x z c M M M n % % x G X z m.%.C #.i.K.8.a.7.7.q.q.q.q.q.q.q.q.8.d.9.w.a r  .T ",
"R.9.M ~ B J 6.|.9.d.a 6.6.h.h.d.Z.T.Y N N z c M m M M M x z z & * x = o 8 T.#.[ ( ~ m Z.R.1.6.q.q.q.q.q.q.q.q.q.q.3.t t 6 y 6.R.",
"..] P h f J * `.^.q.<.x.a c.h.h.q..XO.M x M z m c c M f z c z @ @ % @ X.W.$XL M z m L E.[.R.6.2.6.6.q.9.6.6.2.a y r r 6.<.H.G.W.",
"Y C j M c M $ 9..XR.9.y.6.r.d.h. . XK.H c M z M M z z M M c @ % 4 @ 7.R.oX-X$XA.'.K.R.3X6XV.I.T r r r r y r r r s y  .r a.W.$X9.",
"I M x M z n z @ R.'.9.h.a x.G.h.y !..X..c z M M m x c M z @ # 4 R G.M.h.f.v.u.d.u.7.|.6X0XwX}.R.a.6.i a 2.2.<.<.6.a y h.!.|.O.P ",
"h c n N M n @ x R..XR.8.6.h.r.a.9 E.:XR.= M n x n M M z & # R r.W.R.z.d.a 9 6.3.3.6.z..XrXwX3X&XR.d.a a 2.2.T 6.i y h.R.oX9.P ! ",
"M z c z M z z n O.:X<XR...y.a.w.<.A._.1X9.o f m f n m % # h.R.oXR.d.6.i 2.a y <.2.8.2.x.:X3X8X}.oXK.h.i r y y y i h.W.-XR.N } n ",
"M x M z M c & z $ W.oX'.9 q.s.8.i ^.}.-XI.8 o o k o $ 4 ..Z.oXR.h.8.6.6.2.y i a 2.a r a ^.|.).r.h.,XR.h.a r W r h.R.oXV.w.I z x ",
"M N ^ M z M @ m m i.}.oXK.y 1.i ).|.oX,XoXO.4 = # 4 R r.j.oXx.h.9.a 9.9.a a <.i a T i 6.`.[.W.a.9.u.oXZ.u.j.h.j.T.XXR.@.K M H x ",
"n P N M x M X n X 9.oX3X'.R.R._.<XN.&.! x.G.7...r.v.M.oX:Xz.h.q.6.a 9.6.6.r 6.a y 6.q v.v.}.a.0.s.3.c.,XoX:X4X3X_.-X..J x f J f ",
"x M M M M c o n @ r.XX'.wXR.OXm.| *.U #./ I K.U.W.!.$X!.z.v.6.y <.6.2.a a y 2.2.y a q z.T.m.w.w.q.7.6.v.oX0X3XoX^.I.o.M f M m f ",
"x n x M M z @ G $ 8.,X}.Q.^.OXe.( _ C C ~ C J oXoX}.(.z.h.6.6.a a 6.2.a <.r a 6.y r a.G.[.k.a.s.9. .r.h.E.E.^.R.M.h.N M g C M ~ ",
"M M c M c @ z m m d.!.8XOX}.!.M.C [ [ P E ) M oX(.oXu.h.f.6.a a <.2.2.6.2.r a 2.y y h.}.|.*XT.W.A.T.T.V.Z.=X}.j.z.M.N J f B ^ I ",
"z M z c m X m k k j.oXoXZ.y.~.$X&X] S #.N m H %X|.v.h.q.h.2.a 6.6.T a 6.a w 6.a r e K.n.:.&.=.=.=.&.&.>.&.B C >.G.M.N J M C B I ",
"M z n J k - m & q.G.oX!.a.M.h.R.oX$Xo.N M ' Z.:Xh.h.9.8.d.9.6.a a 2.6.a 2.6 a 2.t F._.&.D &.P E ~ [ [ [ [ x [ [ C >X] m c f m x ",
"h z n z k @ # w.Z.).G.u.R.h.h.h.R.oX$XT.i.w.|.R.h.9.a 8.j.8.a T <.2.T <.a 1 6.a 6 g.G.=.S %.I #.[ C [ ~ ~ x [ [ I R.N M z C m M ",
"m P M h @ 8  .Q.R..Xr.G.h.h.d.h.u.V.,X8X:X0X&Xh.6.6.a 6.h.q.a <.T 2.a a y 1 6.1 r M.H.+X[ ) ) S [ C #.~ ~ x [ I I l.M x M B m M ",
"n x - z % 9.W.W.`.R.z.v.h.h.h.h.z.k.V.oX6X1X3Xh.i 2.6.6.h.q.6.2.6.a <.6.r w 2.w K.'.w.@X} &.#.C C C [ I ~ x ~ I P R.c x z x z M ",
"x N & % 9.R.R.|.oXd.K.y.k.h.h.h.d.h.v.Z.2X0XqXz.6.2.<.6.h.q.6.<.6.a 2.6.y r i 6.}.}.;.-.C $.[ #.C I S I N N ~ [ J K...G M f Q z ",
"x n 8 X.W.!.!.|.R.h.v.z.h.h.h.h.v.z.d.h.W.rXwXW.a a T 8.h.q.6.a <.a 2.a w 6 w h.oXZ.$.-.#.&.C C [ C #.[ ~ P I [ P R.K.w.= c h M ",
"M # 7.E.W.R.$XR.h.c.h.h.v.h.h.h.h.h.a.z.z.Q.3X!.a a 6.8.h.q.q.a a 2.2.2.6 1 r R.|.N.$.+XI E I #.#.C I I N N [ [ N K.-XR...5 z M ",
"$ ..K.R.oXoX}.K.h.j.h.h.h.h.v.h.h.h.u.9.j.y.eX3Xh.i r 6.h.q.8.6.2.a a 6.w q 6.'. X} ] #X} $.S ^ [ C E ~ [ [ [ I x T.&X:XW.6.k m ",
"q.K.W.3X2X1XR.h.h.h.h.h.v.h.h.h.h.f.h.6.d.h.R.^.^.1 a a f.6.7.a 6.<.a 6.6 w h.oXR.} _ =.;.E #.C C [ [ C N ^ ~ [ n T.|.oX:XR.6.9.",
"Z.I.0XqX3XG.j.h.h.h.h.h.v.h.h.h.h.h.a.6.8.h.v.G.R.2.r r r a 9.6.a a 6.a 1 q v.oXi.;.A +X$.#.C #.[ [ I C I [ [ [ z R.7 < a k.Q.M.",
"R.$X0XwX!.h.h.h.v.v.v.h.h.h.h.v.h.h.h.6.6.h.h.h.R.v.8., r r 0.9.6.a a i e 6.K.!.$.} C =.+XC I [ [ C C C [ I [ [ z Q.< < 3 , a h.",
"1 9.3X3X!.l.a.h.v.v.v.h.x.h.h.h.h.h.h.7.a d.h.h.h.0.h.K.h.r r q.<.T 2.r 7 h.}.oX$.#.C _ -.I [ [ #.~ C C I E C C M R.< 6 w r . 1 ",
"< O 9.1Xh.q.v.z.v.v.v.h.h.h.h.h.h.a.h.6.a 9.d.h.v.6.R.Q.q.r r r r 6.2.i r R.oXoXY N D $.*.#.#.S [ I C [ [ C I ~ z T.< < 3 7 . r ",
"3 . q.!.h.v.h.q.v.v.h.h.h.h.h.h.k.q.j.9.6.6.h.h.9.r R.2X5Xh.r w r a a y 6.!.}.}.A.Y C [ ;.#.C I C [ [ C ~ ~ [ [ m !.< 6 w > > 1 ",
"> q.K.I.h.u.v.h.h.h.h.v.h.v.h.h.h.q.h.8.2.8.h.q.i q.oX2X5X}.y.r w a a 6 h..X}.!.oXA.{ U C %.C #.I [ [ C ] [ ] N * W.1 6 6 O q < ",
"6.K.R.R.q.h.h.v.v.h.h.h.h.h.h.h.h.q.d.6.a 6.6.i q.y.$XX.y 7.1Xu.r 1 r 1 '.>Xv.a i I.R.P Z _ *.^ #.#.I N N [ ^ c @.W.1 1 w . w 6 ",
"I.}.^./.^.8.h.G.G.z.h.h.u.h.j.h.i.7.z.8.a y y 9.z.R.O.n M @ O.$XW.f.u.S.OX].i 1 1 i I.}.M.{ ~ A [ ~ ) S ) M J 9.T.R.: > . O > . ",
"$XXX{. X}.A.r. .h.h.u.h.l.h.h.f.h.q.h.<.9 y f.h.R.w.K M M k G 8 9.oX&XoXT.w w 1 < 1 a Q.E.C.{ P ~ I C [ M M ..Z.^.oX:X8.7.6.q.q.",
"$X).-X9X5X5XR.q.9.h.h.h.h.u.v.h.3.0.h.T y 9.h.W.@.G n M f k J o J O.oX.X9.a 6 w 6 1 1 a W.).!.i.N } P x H 9.W.u.h.h.h.j.y.!.:XoX",
"_.N.%.%.h.9X1XI.q.a h.d.h.z.a.h.s.7.6.r 9.h.R. .Y n m x z z n k f * >XW.a 1 ; w 1 < 1 1 a W.-X`.j.] & 9.9.R.R.f.a.x.u.j.x.8.W.oX",
":.%.{ } ` %.j.&XR.3.<.0.z.h.h.7.r.2.a 6.z.Q...' M M z z m z m k M 8 $Xy 2 < 2 3 1 < 6 < 3 a R.oX^.r...7.R. Xh.l.v.6.j.r.h.8.W.|.",
"C ~ A A ] C $.%.j.M.6.y q.q.7.9.y y  .!. .o.{ x z x n m m @ G k % ..W.y 2 2 6 3 1 w 3 6 < 6 i T.XX'.R.I.8XW.q.7.z.j.j.h.a.f.Z.%X",
"~ E ~ [ #.C ) D @.n D.w.r q.6.a 0.x.T...{ P [ n M M z z m k m k 7.S.a 1 w 3 2 2 ; < 1 < i > 1 y R.:X`.5X2Xh.q.q.h.d.h.k.s.6.m.;.",
"C [ [ C ~ #.P J S N Y K w.y y 8.f.R.w.Y I ^ f M z M x f J k @ k z.s y < 2 w w 2 < ; . 3 3 w 2 w y M.>X8XR.p.k.F.h.h.h.a.0.6.D.*.",
"I [ N P [ [ N P P N ~ ~ ' { q.g.W.O.] N [ P M f h M n k M - * 9.R.r 6 6 3 3 1 6 6 < ; ; 3 w q 1 3 a K.oXh.h.v.a.f.j.h.7.s.d.=.~ ",
"C U I N C ~ I C I x N n G l.d.R.O.' M N [ n M x c z P @ f * ..R.d.r w 3 1 1 1 3 6 3 ; O > > 3 6 1 1 y K.oXh.q.v.f.j...s.6.T.$.C ",
"~ [ [ P [ #.C n P d m H i.v.!.6.m M x N [ n M M m n z k m 4 u.Q.r y 1 6 1 1 6 < 1 1 3 O . > 3 1 1 6 6 y !.R.j.d.h.7.f.8.h.%.P ) ",
"#.I [ [ ) C B x x J $ u.oXoX:X6.h M B P [ c M M m x M z # 9.R.s 1 a 6 1 6 1 w 3 w 3 > ; O > > < 6 1 1 1 r R.q.q.a.7.0.0.i.` { S ",
"I [ [ [ C C N J X $ i.oX:X,XoXu.J J n N ^ x x x J z c & w.R.9.r 3 T 1 1 6 1 6 1 1 2 3 ; O ; ; < 1 1 3 6 1 < K.q.9.g.p.s.&.Z [ #.",
"C [ [ C I #.J @ 8 i.oXz.a c.oXR.{ H n I [ M x x x x m * i.G.a < 1 T 1 6 6 3 1 3 6 1 6 < O   < 1 O < 1 w > > h.R.r.c.w.T.=.#.C [ ",
"I [ I ^ ~ N m m u.|.z.8.a  .d.oXj.* M N ] M z M z M 8  .Q.i 1 6 1 T 3 w 1 6 < 3 6 w 6 3   . > 1 > ; 3 6 6 ; q.oXq.f.R.#.[ C #.N ",
"I I [ [ B @ m i.oX:X2.<. .y 6.z.Z.H M j B J m M M @ O.h.W.w < 3 2 y 1 6 3 6 1 6 1 6 3 3 ; . > 3 < > . 3 1 > h.oXoXR.R._ C } S [ "
};
