/* XPM */
static char *eagle[] = {
/* columns rows colors chars-per-pixel */
"64 64 239 2 ",
"   c #1C1D1B",
".  c #0C1F18",
"X  c #3C0101",
"o  c #3A0408",
"O  c #251A19",
"+  c #1B2219",
"@  c #13200E",
"#  c #27261C",
"$  c #36281F",
"%  c #1B1E26",
"&  c #261D25",
"*  c #3A033A",
"=  c #38052D",
"-  c #182625",
";  c #0C2021",
":  c #2A2C2C",
">  c #282927",
",  c #332929",
"<  c #29332B",
"1  c #39362A",
"2  c #2C2C34",
"3  c #2B3335",
"4  c #393A39",
"5  c #373837",
"6  c #372B34",
"7  c #440101",
"8  c #4C0202",
"9  c #480308",
"0  c #540101",
"q  c #5C0101",
"w  c #570309",
"e  c #630101",
"r  c #6C0101",
"t  c #68030A",
"y  c #740201",
"u  c #7B0101",
"i  c #76020A",
"p  c #640011",
"a  c #44013C",
"s  c #4C023C",
"d  c #470439",
"f  c #50003F",
"g  c #413435",
"h  c #443032",
"j  c #5B361B",
"k  c #36433B",
"l  c #48473C",
"z  c #425039",
"x  c #734A29",
"c  c #6E4E30",
"v  c #67580D",
"b  c #3E0244",
"n  c #3B0446",
"m  c #383A42",
"M  c #332F43",
"N  c #440244",
"B  c #4B0245",
"V  c #45024B",
"C  c #4C024C",
"Z  c #460948",
"A  c #520145",
"S  c #53014C",
"D  c #5B024D",
"F  c #530749",
"G  c #450253",
"H  c #4C0253",
"J  c #4D015A",
"K  c #4A0857",
"L  c #530153",
"P  c #5A0154",
"I  c #54015B",
"U  c #5B015B",
"Y  c #550A57",
"T  c #63015A",
"R  c #62004E",
"E  c #503B4E",
"W  c #530163",
"Q  c #5C0163",
"!  c #590367",
"~  c #4D0164",
"^  c #630164",
"/  c #650169",
"(  c #6B016C",
")  c #6A0365",
"_  c #78016C",
"`  c #6A0273",
"'  c #690177",
"]  c #760376",
"[  c #3A4745",
"{  c #3D5145",
"}  c #4B454B",
"|  c #474948",
" . c #52494A",
".. c #4B554B",
"X. c #52554D",
"o. c #4B4753",
"O. c #564C56",
"+. c #4B5755",
"@. c #535354",
"#. c #535459",
"$. c #585758",
"%. c #645356",
"&. c #586457",
"*. c #63655E",
"=. c #585363",
"-. c #695E6A",
";. c #5E6865",
":. c #586575",
">. c #676767",
",. c #736C6C",
"<. c #6A7469",
"1. c #77776A",
"2. c #6A6A73",
"3. c #746B76",
"4. c #6B7576",
"5. c #7A7B73",
"6. c #7C7B7C",
"7. c #757976",
"8. c #840101",
"9. c #8A0100",
"0. c #840604",
"q. c #940101",
"w. c #9D0102",
"e. c #980408",
"r. c #850018",
"t. c #A30101",
"y. c #AA0306",
"u. c #B30102",
"i. c #BC0101",
"p. c #B70308",
"a. c #AA0012",
"s. c #C30002",
"d. c #CC0101",
"f. c #C90507",
"g. c #D30101",
"h. c #DC0101",
"j. c #D50606",
"k. c #D00512",
"l. c #E70203",
"z. c #F2040B",
"x. c #FE2318",
"c. c #B54E02",
"v. c #AB5202",
"b. c #B35303",
"n. c #BA5402",
"m. c #B45808",
"M. c #B05713",
"N. c #835518",
"B. c #C15808",
"V. c #DD6603",
"C. c #810279",
"Z. c #827B7C",
"A. c #847879",
"S. c #83786F",
"D. c #AA6D46",
"F. c #768B00",
"G. c #798279",
"H. c #6E8270",
"J. c #CAC705",
"K. c #FFF601",
"L. c #E1D600",
"P. c #848478",
"I. c #CF8F27",
"U. c #760482",
"Y. c #7B7A85",
"T. c #9C019B",
"R. c #8A0389",
"E. c #A10098",
"W. c #9B02A5",
"Q. c #A006A4",
"!. c #857884",
"~. c #798484",
"^. c #898988",
"/. c #948989",
"(. c #899887",
"). c #94968D",
"_. c #938B94",
"`. c #8E9796",
"'. c #939594",
"]. c #949A94",
"[. c #9B949B",
"{. c #949B9B",
"}. c #9A9A9A",
"|. c #999796",
" X c #8C8A94",
".X c #A29998",
"XX c #A28895",
"oX c #96A197",
"OX c #8FA197",
"+X c #A6A69D",
"@X c #B2B29C",
"#X c #9899A3",
"$X c #9397A4",
"%X c #A698A5",
"&X c #9CA9A7",
"*X c #9EB4AF",
"=X c #ABACA5",
"-X c #A8A8A8",
";X c #B6ABAB",
":X c #ACB4AC",
">X c #ACBAAC",
",X c #A8B8A7",
"<X c #B3B3AD",
"1X c #BAB3AC",
"2X c #B6B8A9",
"3X c #AAACB4",
"4X c #B5AEB3",
"5X c #BBADB3",
"6X c #B9ACBA",
"7X c #ADB5B3",
"8X c #ACBAB4",
"9X c #ADB4BB",
"0X c #ADBBBB",
"qX c #A5B8B6",
"wX c #B4B4B3",
"eX c #BAB3B4",
"rX c #B2B9B4",
"tX c #B4B4BB",
"yX c #BCB3BB",
"uX c #B3BBBC",
"iX c #BBBBBB",
"pX c #BABAB3",
"aX c #C3B7B8",
"sX c #C4AFB3",
"dX c #BBC4BA",
"fX c #AEC3B8",
"gX c #C5C4BA",
"hX c #BAACC2",
"jX c #B8B7C4",
"kX c #AEB7C1",
"lX c #C6BBC4",
"zX c #C2ABC6",
"xX c #B8C2C4",
"cX c #BBC1D1",
"vX c #C5C4C6",
"bX c #D3CBD3",
"nX c #CAD4D5",
"mX c #D1D1CD",
"MX c #CECBE0",
/* pixels */
"5 5 6 4 4 1 E 5 5 1 6 k 5 6 k 6 < 6 4 4 5 g 5 k 5 3 5 g 3 4 4 5 5 5 5 6 [ 4 4 1 6 4 4 6 k 4 5 5 < [ < 6 k 6 4 5 1 4 M k 1 4 m 5 ",
"=.5 #...[ | } [ #.o.} [ #.}  .+.} [ | [ X.|  .} | +.#.#.#.+.#. .o.| |  .} { } o.$.$.#.$.#.#.#.o. .} O.m 3 5 @.} #.O.| l o...} 5 ",
"< z.l.g.j.g.d.g.g.d.j.h.w.z | X.z.l.h.g.d.h.g.g.d.d.h.g.g.g.g.h.g.s.f.h.y.l k +.l.l.l.l.l.l.h.l.h.h.g.g.f.l.g.s.p.g.d.i.i.i.t. .",
" .K.d.u.y.d.0.y.j.9.k.y.e ,  .$.l.g.0.s.i i.q.s.9.f.9.i.q.s.0.y.y f.f.t.r ,  .M i.i.i.s.s.i.u.i.r g.0.d.y.d.q.a.a.0.d.e.s.w.K.> ",
"L.J.F.wXyXsXlX=X:X<X:X7XuX-XtXqX8X8X:XwXeXwX7XqX7XwXwXeXrXeX7XyXwX5X8XeXeXwXwXtXwXwXwXwXwXwXwXrX9XdXtXwXwXtX<XtX*X2XtXtXpXJ.J.v ",
"D.F.v 3.2.H.A.G.6.Z.5.!.Y.^.7.Y.A.7.G.!.!.6.6.Z.G.!.3.5.7.!.H.!.6.Z.6.A.~.7.G.7.Z.6.6.6.6.6.6.6.7.5.6.A.!.Y.H.G.!.G.3.,.<.N.I.v ",
"O.j t.G.~.A.6.}.#X[.}.{..X|.).}.}..X|.{.{.|.|.{.[.`.}..XoX[.{.|.{.|.}.].{.{.)..X[.{.}.}.{.}.[.{.{.].}..X}.`.#XXX}.P.2.H.P.8 D.m ",
" .s.0.{.Y.x.t.o 7 X.e y r y i e e y r r r i y r r r y i e y y r r y r y y r y r r r y r r y y r i e y.y.z.z.H.7 7 X ~.vX2.q w < ",
"| i.w.=X!.y.aX#X2.7 H.3XlXmXjXvXeX4XeX>XwXeX5X,XtX<X>X<XeX:XjX<XrX<XtXzX=XdXwXeX>XtX5X:X8XaXwXtXxXdXvXiXxX7.7 Y.,.{.x.~.2.q o < ",
"| i t 1X{.X }.dX|.P._.(.=X3X^.!.&XmXdXjX7XwXtXuX4XyX9XhXpXeX7XtX5X:XwX8X<XwXaX7X7XtXyXyXtX,X7X(._ 2.pXsX&X=X=X3.-XbXt.,.S.7 X , ",
" .l $ nX&X8 ].+XgX_.G.!.}.}...L 3.3XmXnXvXlX4XwXwXwXeX6X:XiX=XeX6X2X:XsXrXvX=XsXwX2XtX3XmXlX/.2./ C #X-X5X$X|.+XbX7.X ~.{.- # > ",
"X.m 4 MX9X$.2.%XeXxX{.H.Y._.Z P P A 6.,XmXiXdXgXdXdX4XuXZ 3.#.H K I C n.V.V.2XzXtX2XgXlXP.&.T U S V #X|.|.|.*XmXvX*.$.^.3X% > < ",
"l.g.d.pXbXX !.`.+XiXjX#X<.>.} S L H Y H Y.;X8XtXsX8XwX>XH H F I G G.C m.c.V.I.@XrX=X X-./ W C H C o.{.].#X@XcXaX-XY.7 ).-Xq 0 l.",
"a.9.9.wXmXy ].(.].%XaX-.F >.>.} b H B P U ! A G. XwX5XuX3.I L P U D H n.^.9XrX X*./ / F W Z L L o.<.,.S &.-XvX-X^.~.7 ;X:Xe q y.",
"q.t.0.sXbXy.+X}.|.`.*.( / o.,.;.l D C H b R.L T P <.^.eXrXS B H C V L ^.kX^.<./ / S R.C L D B [ 3.X._ ' Q ;.-X#XZ.^.r -X4Xw 9 e.",
"y w.w.<X7Xw.jX`.^. XN Q _ ! J l :.[ 1 C B / V ! U L I 1X8XH I H J L S 0XwXT Q U Q C / N H 4 | >.| H / L ] _ (. X7.[.r -X<X0 0 0.",
"w.0.9.2XuX0.aX-X|.^.G B I ' U / Y } #.5 b a G N C L =.rXhXC L C C L S hX>X=.N F F N C b 4 o. .n S L Q ] ) ) |.6./.^.r =X8Xe 0 i ",
"r a.y =XtXt nXsX;X#X} V C T ' ] / P N = V a * B n ^.4XeX<.Z L H H I H <.kX3X(.V B n N b d N a L L ( ] / ( #. XZ.^.|.y :XtXe 0 q.",
"y y.r tX,X0.nXxX9X(.>.} Y H / U ' Q J ` a a n V |.B ,.yXC S I C H C C S sX7.s ^.V * B V L H B Q ) ! ] ' o.~.7.^.`.&Xe wXiX0 0 e ",
"7 X 7 dX9Xy mXmX>.F <.#...| L Y / U / R.a B N C H Z S 7X<XP W H S W L -X<Xa b C H H C U ) L S / W _ #.<.2.l E <.|.-Xy wXyX7 0 X ",
": 2 : <XtXr wXmXU L C | X.%.o.o.Q Y U.P R.d H C S J a 6.2.F H B Z I n 2.!.N H H b H C / / U Y Q &.^.P.>.E s = G |.-Xi wXuX@ $ , ",
"X.+.l aXwXi wXmX( Y C H N V 5  .} #.-.U H Q U G F a S C G H R C S R G J C B N B * C D Z H ..2._.Y...~ N a * V N +X-Xy wX0X@ > 3 ",
"#.z.l.vXjXi uXeX/ L L P V * a N L B Y E.H Q P V J B H J I G S I Q s G U V Z a C N V Y I T.U P L C G = B = V N P =X-Xi <X7Xt p > ",
"$.l.0.bXmXw.nXgXP ! W L b V * a * b G C.U P D H V Y S C P V S Z Z H C D G B G H L / L U T.Q P P S P G N b * C L |.-Xy 8X;Xq X > ",
"6 z.t.vXgX0.dX$X2.S / C S C V N n B * ] P W V P L H H W X.#.>.<.4.>.%.#.H ~ B T H Y D I R.H U H H H a = b V Z 2.|.;X0.:XyX0 7 : ",
" .d.q <X;X0.;X}..X<.o.F H V N b L C L U ` L Y H N S S L &.( Q.( ] R.) ;.B C U H / P U R.I R I V V N b b *  .<..X#X3X9.wX:X0 7 2 ",
"| u.a.aXtXe uXF P o.*.,.3.;.*.$. .l < V Z / _ L I U H B 6.T.' ] _ ` T.!.Z T H U U C.( F L X.$.l l 1 4 O.#.&.o.T / aXe.vXgX0 9 > ",
"X.s.y =X-Xr -XC H P L P P R S n n H V H H L T C.Y V U J %.W ] ( ' ] ' ..S G I ) _ Q S Y ) H N H N n N V b C L / ] bX9.mXbX8 X , ",
"| d.y.-X&Xe &XI Z J W K P G G I L N F N J I I H U U V D !.T.` ) ` ( T.!.W / S I L L P P C G V B N H H B C / Q Q / vXe.vXgXq X < ",
"l e.9.|.#X0 |.W S S I P S U L L L T H H Z L H H H C I J ..` T.} ] R.U...B N / I I L W P B N L B H C V N B L Q ( / pXi iXaXp 7 3 ",
"..l 6 ;X-Xq =Xs P C P H I L S B H G C #.P F V P ..L C W Z...` } / ' $.G.U F L  .I Y S L +.C * S n a N L P L I / s uX0.1XqX  + : ",
"#.+.%.-X,Xw -X-.H H C S H G H I | 3.F P H H B O.T Z C d %.!.7.$.#.Z.Z.+.H I Z L #.B D N H J <.| L C N N H U T Q -.7Xi ;XuX# > 2 ",
"d.u.s.wXeXr 4X{.>.C L H C | <.3.H B P I H S <.C F H W J P B X.7.H.$.F L J J K L C <.L I C P N H <.,.| S L I L >.}.1Xy wX7X0 q s.",
"w.y.y.tX7Xy sXqX6X.X].#XoX3.S J C L H S C 2.U V L s H H C L I L L U H C C S B D V ! ,.a C n C V J H ,.oX|.OX.XkX-X+Xr -X-X0 q w.",
"w.i 9.9XyXy wXwX`.}.3.Z C S L Z H Y H H <.I L I L H F F L B U G G L C C S L C L I L L <.C N Z H a L Y U P 3.|.].}.|.0 }.|.0 q y ",
"9.0.w.0XrXy wXeXH L Z H W L U a Z L L 7.C s G Y 2.I 2.J Y N L S S L C Y K 2.I ,.C L s S >.S U N C ) L U C L U L _.^.8 ^._.q 0 r ",
"t.q.0.4X:Xi wXtXC L S S V F L I S L 2.P S I L *.#X<.L Z H J L L L L J J s U H.$X*.L I F W <.C L C I L T U L H N |.].t ].{.e q i ",
"y.0.i wX1X0.wX7X3.F L H I L C C L >.Z L I N C OXZ F S L C H Z S S Z H F I S B V `.Y V I L Z <.L H U P H L T S 3.|.].e ].{.q q i ",
"e e 9.uXwXi 7XeX|.H S N L C H H 3.Y L G H B #XC P U S D L S Z J H Y P C P C / S L [.C I G L U 3.C C P P S L Y |.-X-Xe -X&Xe q q ",
"8 7 8 tXeX9.wX:XfX3.S ! C C H 3.L N L S I H P L H b I H H L C S S H C H H L N C S S H S F C N H 3.Y C C Q H 3.,XwX<Xt aX-Xq 0 7 ",
"< > m dXlX0.gXlXlXiX,.H F S <.H I B H F C #XS C L S G C F U N L L N U F C G S L C S #XH F G B L G <.S s L ,.rXyXwX6Xr 2XwX- > , ",
"$.l l mXbXe.mXmXnX-XdX].[.].}.U H G L H .XeXT.H V P L L J <.J V V J >.H L S P G H T.1X.XC I G H U [.].%X}.8XwX8XwXtXe wXtX# # < ",
"m l.k.vXlX9.dXlXdX1X9XtX9XwX).).D S C .XrXqXtX,.~ H V I n I D S S P I n I N H ~ ,.tXqXrX.XS S P oX/.uX9X7X9XpX2XxXlXq.dXlXw w > ",
"#.l.y.;XkXq.pX4XtX<XeXeX9XZ.b.b.5.fXkXsX:XY.b.C L N D S I C S I I S C U F D N L H c.6.7XsXkXfX5.b.m.5.uXsXsXgXjXxXdX9.vXvX8 X > ",
"| d.t.8X6X9.wXwX>X6X2X-XeXM.n.m.m.v.b.b.b.m.b.N.x S G ,.uXY S H H C Y tX,.G S x x n.m.v.b.b.b.b.v.B.M.eXxXgXlXnXmXmXy.bXnXq 8 3 ",
" .f.9.wXwX9.wXwX4XkXwXlX>X=X7.>.x m.v.n.b.x x Y.sX:XrX<XH H H S S C H H wXrX>XsXG.x x b.n.v.m.x 2.7.,XrX6XiXjXvXxXdXq.vXxXq 7 > ",
"4 d.a.2XeXi wXwXwX<XkX1X5X_.n.m.m.c.b.b.n.B.c.v.rX6XrXJ L B H I I H C L J rXtXwXm.v.B.n.b.b.c.m.v.n./.sX<XtX1XtXlXdX9.jXxX0 X > ",
"#.j.w..X3Xy =X-X-X;X=X7XuXn.x x ^.n.n.c rX^.x c.6XH.S H B R H V C H R B G L 1.tXn.x ^.2Xc n.n.^.x x c.kXrX2XwX7XwXwXy 8XeXq 8 2 ",
"6 d.w.;X-Xy ;X-X+X-X&X-X1Xc 7./.eXb.x eX5X<XiX7.#.L L H H U H V V H P H C L L #.7.uX<X5XeXx c.pX/.5.c 2XwXkXyX<XwX5Xy qX1X8 9 2 ",
"X.y.q jXtXr hX7XiX-XjXjX5XaXwXqXwXn.c wXrXY.O.S L N L L s L B I I B I a L L a L P #.!.rXwXc n.wX0X1X6X5XyXkX:XiX7X;Xi >XuX7 8 # ",
"4 | , 8XpXr }.0XaX0X;X:XtX7XaX9XwX Xv.wXB C s W S V U V L 6.L B B I 5.P C I V L W s C s tXb.^.wXuXyXdXwX7XwX0X4XjX.Xy 4XwX  - 5 ",
"=.3 #.4XqXy 6.1XwX9XsXdX<X2X4XeXyXiX9X<X!.X.Y V U H V >.rXL K C S K L rX>.V G U V Y +.!.eXkXiXyX;XeX=XtX<XsX7XwX:X!.r rXtX& : > ",
"h.f.h.rX2XY.i S.|.eX9X:X>XyX,XkXwXtX;XfXtX:X!.+.Z C >.wXY.H P C C P H Y.wX>.C Z #.!.,XtX,X;X9XwXjX8XwX>XrX3XeX.XG.i 7.jXtXq q u.",
"i y.q 5.jX2X5.p y i Z.|.9XrXeXeXiX=X<XiX4XaX<X:X5XaX;XhXZ C B I I B C H hX;XaX4X>X<XaX4XiX<X=XiX<X1X:X<X|./.r r t 5.#X7XY.0 e r ",
"y.y 0.8 Z.eXjX9X|.5.r y i y A.|.7X1X1XkXtX;XjXyXwXyX1X>X-.P C C S C L >.>X1XjXwXyXkX;XtXkXsX1X7X|.!.i i i e /.}.-XaXeXS.w 0 0 0 ",
"w.y e w 0 #.H.sXtX<XrX:X|.Z.t r i 6.|.yX:X>XwXtX0X7X9XwX<X>.H L H H >.<X<XtX7X7XtXwX:X<XyX|.G.t y q Z.}.wXrX<XtXuX5.+.q w 0 y 0.",
"i q.q q q w 0 X.!.:XwXrX7X6XwX#X5.t y r Z.].yXwXwXyX6XwX2X<X:.S S :.<X:XeXtXyXwX<XiX|.4.i y t 5.}.4XyXqX5XwXG.$.q q 8 e e 0 y y.",
"q y.i t.q 0 q t q w t  .G.<X<X<X2X0X%X7.i e e G.].<X8XiXwXiX;X>.>.;XuXwXwX8X<X].7.i y 0.G.$XtXpXtX:X<X5.&.0 0 w 0 q 8 y q t.r t.",
"y t.0.0.r e.q.e q 8 7 e w w X.Z.rX2X@XpX7X%XG.y y r r.H.`.1XwXtXyX3X1X|.5.r.r y r H.{.jXwX1X1X-X6.$.9 t 0 q q 8 q r a.t 0 q a.8 ",
"r w.0 e.e e 0.y i 0.y.e q q 0 0 0 X $.Y.5XwX:XwX:X].5.r y i 5.#X[.G.0.y r H.].wXwXyXtX7XG.$.7 1 > > w 7 r q a.q t.r t.y y.q t.r ",
"0 0 w o 8 8 w X 0 0 7 0 8 8 8 7 X w   % 6 +.5.sX9XlXtXwX}.5.e r r e 5.}.yXtXyX9X~. .9 7 8 7 o - < > t X X 7 9 8 8 7 e 7 8 8 0 0 ",
"< : < > > < , < 2 : 3 - > < , 2 < > > - & - > O <  .S.4XyX8X5XrX8X5X8XyX;XP.X.% O - O # >   O O , < > < $ > > , , %   > + - > 3 ",
"5 #.k #.g 4 g | { } } o.#.6 g 4 4 , < # > 3 > 2 @ , - & % ..!.5XaX6.| 3 & . O + & 3 , > , 3 - < 5 g h | ..#. ...|  .k 3 l  .| | ",
"..$.X.O.#.X.#.#.X.$.X.X.$.$.+.#.#.#... .6 5 5 : 2 % O & - - O #   & > ; & $ % - O . 6 4 4 4 } } @.+.X.#.#.O.+.+.#...=.%.O.X.$.X."
};
