/* XPM */
static char *mossy[] = {
/* columns rows colors chars-per-pixel */
"64 64 234 2 ",
"   c #1C1D1D",
".  c #1A1C17",
"X  c #1B1D0B",
"o  c #211D1B",
"O  c #231B17",
"+  c #1D221B",
"@  c #182216",
"#  c #1B230C",
"$  c #3A3D04",
"%  c #23221C",
"&  c #27281A",
"*  c #2E301A",
"=  c #1D1C23",
"-  c #1C1C2A",
";  c #211E24",
":  c #261E2B",
">  c #231D32",
",  c #1D2223",
"<  c #1A2528",
"1  c #1E2A2D",
"2  c #232323",
"3  c #2B2C24",
"4  c #24232C",
"5  c #2C2C2C",
"6  c #282829",
"7  c #332A2A",
"8  c #2A3228",
"9  c #33342C",
"0  c #35392B",
"q  c #38372A",
"w  c #2B2B32",
"e  c #292736",
"r  c #322C36",
"t  c #2D3334",
"y  c #343534",
"u  c #353A34",
"i  c #3A3A34",
"p  c #35353B",
"a  c #3B353B",
"s  c #363A3A",
"d  c #3B3A3B",
"f  c #3A3533",
"g  c #433B39",
"h  c #403434",
"j  c #443B00",
"k  c #3D4403",
"l  c #3D4035",
"z  c #434208",
"x  c #555703",
"c  c #4F4C0B",
"v  c #6C6C01",
"b  c #696905",
"n  c #726D01",
"m  c #766A07",
"M  c #6C7202",
"N  c #687801",
"B  c #767507",
"V  c #716C16",
"C  c #44433C",
"Z  c #47493A",
"A  c #485332",
"S  c #605900",
"D  c #3A3644",
"F  c #3B3A43",
"G  c #373744",
"H  c #2E3643",
"J  c #433B45",
"K  c #503F49",
"L  c #3D4844",
"P  c #454544",
"I  c #4B4543",
"U  c #454A43",
"Y  c #4A4A43",
"T  c #45454B",
"R  c #49454C",
"E  c #4A4A4B",
"W  c #46494A",
"Q  c #544A4B",
"!  c #4D5448",
"~  c #52534C",
"^  c #575749",
"/  c #494855",
"(  c #544D58",
")  c #4E5457",
"_  c #545454",
"`  c #5A5554",
"'  c #53535A",
"]  c #575958",
"[  c #655C5A",
"{  c #6B5D50",
"}  c #5E6459",
"|  c #64645C",
" . c #676759",
".. c #595863",
"X. c #544E62",
"o. c #655E67",
"O. c #6C5D6B",
"+. c #646464",
"@. c #64636B",
"#. c #6C6C6B",
"$. c #696766",
"%. c #756C6B",
"&. c #6C726C",
"*. c #697267",
"=. c #76766A",
"-. c #6C6D73",
";. c #6A6775",
":. c #756C76",
">. c #6C7575",
",. c #737373",
"<. c #7B7C7B",
"1. c #787977",
"2. c #5B666D",
"3. c #867D04",
"4. c #827B7C",
"5. c #847878",
"6. c #837D6F",
"7. c #7D8400",
"8. c #7B8607",
"9. c #798278",
"0. c #728172",
"q. c #848401",
"w. c #898401",
"e. c #838901",
"r. c #898706",
"t. c #9D9602",
"y. c #959C01",
"u. c #9C9C02",
"i. c #9A9B0B",
"p. c #8D9209",
"a. c #A49902",
"s. c #A39C13",
"d. c #9BA101",
"f. c #95A303",
"g. c #8EA102",
"h. c #ACAC01",
"j. c #ABA804",
"k. c #B3AB02",
"l. c #B8A905",
"z. c #ABB301",
"x. c #AAB507",
"c. c #B3B102",
"v. c #B8B206",
"b. c #B4AD12",
"n. c #C9BE01",
"m. c #D2BE03",
"M. c #C4A908",
"N. c #BBC901",
"B. c #B7CA10",
"V. c #C4C401",
"C. c #CBC402",
"Z. c #CBCA03",
"A. c #C8C808",
"S. c #D3C302",
"D. c #D4C606",
"F. c #DDD904",
"G. c #D0C412",
"H. c #E5D805",
"J. c #D5E200",
"K. c #E9E60F",
"L. c #FFF22B",
"P. c #88877B",
"I. c #8F907A",
"U. c #7A7A85",
"Y. c #717185",
"T. c #837987",
"R. c #967E8C",
"E. c #798385",
"W. c #7F8794",
"Q. c #858B85",
"!. c #8B8B84",
"~. c #8C8C8B",
"^. c #878789",
"/. c #948A8A",
"(. c #8C918B",
"). c #899387",
"_. c #96968A",
"`. c #8C8C92",
"'. c #8A8995",
"]. c #928C93",
"[. c #948797",
"{. c #8C9494",
"}. c #959493",
"|. c #949A93",
" X c #9B9A9C",
".X c #989798",
"XX c #A3979B",
"oX c #A29989",
"OX c #9AA598",
"+X c #9DAB98",
"@X c #A7A79B",
"#X c #AFAC9D",
"$X c #9898A3",
"%X c #9A8EA4",
"&X c #A599A4",
"*X c #B09DB1",
"=X c #9CA7A8",
"-X c #9FA7B1",
";X c #A4A5A4",
":X c #ACA5A4",
">X c #A5ABA4",
",X c #AAAAA4",
"<X c #A4A5AB",
"1X c #AAA4AC",
"2X c #ABABAB",
"3X c #A5ABAB",
"4X c #B3A7A7",
"5X c #A8B1A8",
"6X c #B5B6AA",
"7X c #A9A8B4",
"8X c #B7ACB7",
"9X c #B8B6B9",
"0X c #ACB3B4",
"qX c #C4BBBA",
"wX c #C6B7AA",
"eX c #BBC2BA",
"rX c #BDC0AB",
"tX c #C6C4BA",
"yX c #BAB8C6",
"uX c #B1A9C6",
"iX c #C5BCC5",
"pX c #BCC3C6",
"aX c #C6C6C6",
"sX c #D7D6CC",
"dX c #D8D9D8",
"fX c #D0CED2",
"gX c #E3DCDA",
"hX c #E7DBCF",
"jX c #D7E2DA",
"kX c #E3E3D9",
"lX c #DBDAE3",
"zX c #E9E9E6",
"xX c #ECECF0",
"cX c #DFDBE7",
/* pixels */
"5 w 5 7 7 3 5 9 5 r w & 8 w 5 8 r 3 3 w 7 r 8 5 & 7 7 w r & 8 r 8 w * 7 3 2 y 5 w 5 5 7 8 w 7 5 8 7 w w w 5 7 t w 8 8 w w 3 r 8 ",
"~ ] ' _ _ ] X.! ) _ T lXN.D.m.C.m.cXjXjXdXlXdXb.v.c.lX= C !.<XgXzXlXdXlXG.C.C.#.(.(.] o L L W Z R Z Q L E Z ) ! ] ) ` ^ ! ) ^ ) ",
"` ! ) ] Q ( _ ) ^ ~ / kXfXh.b.k.j.}.8XC.V.sXyXtXD.V.`.@ y [.pX8XQ.V.U.D.a.a.t.M ~ ) i % y Y.s.t.t.t.=.1.5.#.O.P C / Q P / / R P ",
"].~.~.!.'._.'.`., ! R dXfXk.l.k.B }.V.D.t.eXpXiXe.h.| 4 i @XdX>XQ.<.C.1.v e.M Q T.' 9 % G i.C.F.s.M `.9XaXm.D.n.$.o.V.V.`.!.!.!.",
"fX6Xz.8X9X@XQ.I.X _ / jXsXt.t.e.v &XV.t.5X<X.X^.I.i.Q 1 y `.aX/.[.^.<X3X$.e.b ] #.] f 2 s a.H.b.M } 1.8XlXZ.F.F.E @.C.n.e.4.fXfX",
";X4Xh.b.' >.P.:.> _ P dXtXy.r.M ,.=.XX,X$Xf.!.>.].B { = y U ,XG.t.4X).P.6.x ( -.' ] f 2 9 a.H.m | {.9XH.Z.5.a.f.Z @.t.w.b E `.$X",
"6X&XM ( `.~.{.;.2 E E lXfXj.m m 4.>X.X$X Xy.`.}.:.].Q @ y E 1.t.7.c./.0X2X&.{ Y.s s f , s 3.a.v  .>.Z.C.C.T.B t.W -.;.R C | x.1.",
"0X6XU.].,X~.-.^ . F C dXfX^.1.1.{.7X XfX5.e.}.4X).Q.' 4 s P ;.(.1X(.1X^.~.[.:X*.0 a F 5 s e.b  .~.'.T.C.9.1.m n E :.9.~.&.U.3.#.",
"}.2X;X-.,.~.W T o 5 E dXaX:X X1.oXN..X$X/..X).'.@X(.) 2 O J ] &.>.] X.a u g a s s y 1 h u U. .~.1.4X<X4.(.2XY.Z ,.Q.|.~.~.1XQ...",
"}.Q.^._.#.] P Q , 5 P dXxX2X1. XT.A.h.-.!.!.~.1X`.`./ 3 % _ P s w l D q u u u a = & w q F U.iX7X].f.1. X1.U.&X+.,.|.].}.~.~.@X].",
"#.-.,.,._ P s y 2 5 W dXdXQ.1. XXXn.t.:.@X[.,X`.2X'.~ y ; f E H 7 * - 4 @ 2 % 1 5 7 D s a ,.9X=.y.T _.4XJ.<.].&.~.#. X#.#.~.+.+.",
"] ] P E P ; + % % 2 E 2XdX2X;X1.N.c.j.-..X/.).1.I.&.;.9 . s C E E L >.,X4X:X7XkXgXB g q f ,.6X].4.@.O.=.y.g ! ..#.P W P W W W U ",
"o       2 5 5 5 y y ] ~.dXfXQ.4.].y.&.`.~.-XU.~.p./._ q 2 i R &.7XL.L.sXkXlXfXfXhXN.v y i ~ {.=.@.+.] T x q J u y f s y 5 5 9 2 ",
"r 5 5 5 5 5 w 5 5 f _ &.8XfX~.3X!.!.Q.1X~.)..XI.:.o._ F ; 5 D ,XL.C.a.].!.;X/.@Xi.:.x > f g H H q s i y g s f e w ; o % o ;   2 ",
"f i s f s g a s y s ] E ~.fX:X~.7X&X&._.'.P.!.2X7._ ] q - 3 W 1XC.e.U.3X_.H.H.'.t.~ v q s 2 9 w 7 w 8 & r 4 w i y s y s a s s f ",
"] P s s y s f y f s E W #.aX^.2X|.V.s.#.;X[.7X~.v ] #.W   5 R ,XH.3.E.!.V.H.U.~.r.] x f / E ^ _ ] Q 1 E T Q Z W E E E P E W P E ",
"}.$X{..X$X|._. X.X5 > ~ / tXqXe.].y.3.4X-.(.!.`.-. .' '   % g H.H.P.1.1XH.H.-.`.b ^ f u E H.l.z.@._ T ~ 5..X$X X_.$X|.}.XX.X_. X",
"sXG.c.gXgXC.t.>.=.a   ! W ).qXv #._.$.^.:.-.,X].-.!.#.~ 2 - _ F.5.!.Y.].t.n $.>X].] s s L a.M.e.| 8 W 9.pXD.m.V.lXh.4X>XN.Z.C.cX",
"D.h.7.k.h.t.m ' -.a & _ W *.}.;.| `.].&.I.] '.&.] Y.] E + @ L 4.`.9./.J. .+.#.! ^ ( r 2 q t.w.( *.; T XXV.G.D.U.H.f.1.*XG.t.e.-.",
"j.r.4Xb.a.e.v ! -.u 2 C X.E .X_.-.!.+.-.,.#.:.] #.^ Z 4 2   t 3X).@.].%.' 0 q s a s a = #.d.e.>.Q @ ! |.A.C.1. Xt.f.P.}.V.a.3.1.",
"r.;X].c.t.B b ] ' u 2 E ] L @.~ ~ s u w F y 9 5 2 % o : o : & /.&.g a s 4 < > = 2   = ; #.P.7.!...O L $X:X1.^.$Xt.4.1.3XG.a.3..X",
"1XQ.@Xb.m ) Z ].^ f ; T E ) 8 3 r 8 @ 3     % > > o   < 1 = r s ! J = , % @ & 8 3 8 5 w Q.2X[.3X~ ; Q ~.5XXX:X|.2XU.:XE.@Xt.B &.",
"`.:X6.1._ >.`.1.~ D 2 u ] Q P g ; e + = ; % 4   E W E Z W P P Q.`.$Xy.f.p.a.f.4.( y i +.pXsX,XiX2.o K }.I.*XK.}.!.5X_.7X@XP.0.}.",
"`.C.i.1.`.I./.@.W s   a /.V.D.j.t.4.9X2XyX| u E | a.n.C.D.k.sXxXxXzXS.C.G.S.j.t.e.X i T.lXeXgX>X&.& J U.|.2X{.!.1X$XH. X1.1X}.7X",
"!.i.e.1X).`.'. .E s ; J V.k.z.y.4.1.E.1.Q.D _ U f.D.b.>.|.4X3X|.1X.Xd.4.s.e.t.e.n   s [.dX4X,XyXH.: E H.7XOX+X$XH.H.:.,X|..X1X}.",
" X7.]./.!.!.&.( y s 2 q k.s.e.O.#.+. .#.} @ ( T XXxX X.Xy. XV.7X X_.U.2Xe.T.t.n x 2 y ~.H.{.I.5Xt.. E a.x :.{ H.c.3.B x -.<.' ,.",
"+.$.+.| @.] W H f F = a x.w.o.@.|.7.s.v +.+ E W |.xXH.*X|.A.w..XZ.N.;X_.7.;Xe.O.x @ J ).k.&.].;XM % P x a a E x x x x W I ] _ ~ ",
"_ L E u a q ;   , o y 9 x.e...OX|.5.3.n o.+ E P |.xXV.4XA.t.T..XC.w.*XOX&X$XU.2.j 1 7 ].&.].,XdXx O C r 5 ; 2   % ; 4 , > i y E ",
"  4 , = 4 2 w 8 w Z U E xXO._.@X8./.e.b #.O y U _.xXk. Xm.n =.,X$X X XU.h.w.=. .z . G H.zX>XdX-X~ w P a i y 9 w w 4   3 O % % = ",
"U @. .=./.XX!.{.I.]./ , zX$X$X#Xe.]. .1.$.z = / |.xXM.@Xt.V E.|.P.OX1X.Xv.3.U._ z 4 f j.zXaXaX1XX., C s y s s F q J g 7 H y s D ",
"@.I.4Xb.h.!.2X1X7X@X@.= zX4XaX~.v uX^.U.{ $ 4 T $XzX=XA.t.v 6.|.XX1X.X2Xj.e.{.] j % v y.jX7X*Xc.! 4 T N a.y.t.k.c.e.e.Q W U E ^ ",
"@.6Xb.k.w.+.;X:X-X,XC 2 xX4XOX*X6.~.1.).;.k O Z 1.@XN.t.B %.1.7X.XXX1..Xl.e.O.^ k + a a.jXdXk.t.]   ( -.a.M f.t.t.k.k.j.e._.G _ ",
"| b.a.e.[ I.;Xc.b.%.| ; xXfX<XXX1X8./.,X@.k % g ! }.i.n T.9.!.$X3XU.+X,.c.3.=./ i > a t.jX:Xk.B ~   P  XY.%.d.t.7.r.n v M T.q ] ",
"$.h.d.&.#.7X1.l.e.&.;.2 kX|.{.}.=X(.~.1.] k ; w ] 7XxX:XC.A.f.P.1.1.:.4.k.e.@.P & . B /.fXtXc.c ] o E sX@X2Xi.m :.$.x $.-. .a E ",
"+.:.^.1X(.Y.^.k.B ;.! o kX+X2X2XXX@X<XQ.#.$ o 5 Q ~.xXaXV.3.B U. X X].;Xd.7. .C > + f.^.fX5XB B $ 4 E aX7X[.y.n ].Q.}.o._.@.u R ",
" .>X,X!.3X:Xx.t.v :.` 4 cXeX9.}.D.h.T.~.[ z o 2 P &.fXqXe.m [ 1.(.;XoXz.p.+.$.a ; 2 R ~.fX`.B x z o ! aX;X@Xt.b U.!.$X}.6XX.y E ",
"+.lXXX>X{.Q.e.m M %.^   iXzX).XXk.e.].,Xo.z z . ! ^ 8XdXM [ ^.Q.>X}.7.$.@.} Y.q o J J P.7XU.m j x s g 7X2XI.i.e.;. X1.&.$X_ a q ",
"@.dX,X5X~.XXb m -.&.^ = 6XdX:.<X'.~.~.Q.;.k k , y X.!.aX X1.1.>.:.*.O.[ 1.,.' q 2 9 / ' 9 l x x g q W Y.! R Q ] ^ ~ ' Q ] _ D s ",
"2.dX9X).k.w.!.#.].&X) 2 }.dX2X1.=X3X1.`.| ~ $ 4 q ' E !.^.,.&._ ~ W & k E ~ C 4 % s Z _ E C F s a W P ; % % 3 . 2 4 2 4   + 2 a ",
"+.hXyX-X[.}.`.x.y.&.)   P.lX.X.X7X!. .].U.) k o 8 P E g 5 4 r & > 8 3 r u s h H s F E W R R E P T U E E / U y G a i y s i y u s ",
"O.sXb.k.}.(.v.a.e.:.( + _ xX1X>X/.].~.7X1.] x o 4 E E Z u u q D H C E E ! ' $.@.o.1.-.U.T.1.1.1.w.7.7.r.<.1.5.1.1.1.T.1.9.^.H _ ",
"+.x.j.e.2X_.y.m b [ )   P zX$XQ.f.1.~.6.1.' x o q u O.t.i.f.i.y.a.d.3.4.T.^..X|.+X#X,X<X2X9XwXA.D.D.b.B qXaXH.l.eXG.k.3.wX1.g _ ",
"+.c.w.T.$X$X!.v V #., 5 Q xX:X(.7.@.5X!.} ] x : @ f n C.G.m.D.V.n.C.A.y.#XtX@XpX$X9X:XtXyXqXV.b.7.e.7.9X6XF.j.aXtXk.k.b.7.| 7 P ",
"$.k.r.U.*X!.~.}.I._ + 5 W zX].:XO.+.`.^.*.Q x O > s n C.j.k.M.k.v.k.k.e.1XiX<X#XtXD.a.}.<XXXj.e.2X}.m.n.j.Q.Q.eXh.a.h.7.T.] 7 C ",
"..k.e.~.9.2X~.>X[.) @ F E dX<X2X,X<X^.1X .Q $ % % s 7 z.x.t.a.s.t.t.t.e.v '.aX7X2Xt.d.3X>X XeX X:XC.M.M.1.~.$X:X%.%.c.-.*.X.w F ",
"Q 8.5.].+X{.7X).@._ % y E fX`.~.#X`.P.].| ] g = - q 5 ].E.~.t.e.a.w.w.B M -.3XeX<X).9.}.pX|.$X@XV.E.U.=.&X-X#X$X`.].k.%.>.] 8 h ",
"P `.].`.`.=.$._ ) + 8 a W 8X>X~.^.<X!.Q.+.~ a ; % u 3 9XkXtXy.M b b b %.#.~.#X9X~.yXR.XX|.V.D.$X(.9.*.(.I.F.h.9X>X`.k.&.#.] 4 g ",
"E 9.1.;.$._ _ ] ]   7 i W |._.3X/.{.'.&.$.' q   = G 5 yXdXfXe.-.&.=.&.<.$X].g.4X6X3XQ.8XV.4XQ.!.4X].^.|.9Xh.3.#X.X X:.>.*._ > 9 ",
"Z y 4 ^ ..' _ ^ ] = L C P 1.@.| $.}  ...' ] y ; o s 3 >XgXfX:.U._.].h.k.e.8X!.'.8X.X=X8X@X].b.&Xh.7X.XyXz.e.XX<X>X.Xb.z.=.) , y ",
"] ) _ 3 3 % = r 4 4 s E y y s s D g y u u F L + = r 5 '.fX9X~.5X$X4Xz.k.v .X0X!.8X X).].F.c.v OX4XqX_.7XI.&X1X.X^.[.8X6.%._ 2 y ",
"K R W E a s 4 3 & 5 u P i F & o , . 2 & 2 . = + 2 o 3 ~. X>.1.-.;.:.e.m M !.,X-.E.!.8XK.k.v ,X!.<X X~.!.9X1./.~.V..X`.|.Y.Q ; i ",
"W 1.1XN.D.D.t.].+.( E Q f y 4 r 7 r 5 5 r 7 7 7 & 4 J _ W q 2 r 3 w 7 r ( &.>.T._.f.8Xm n T.T.:.$.U.~.~.{.1.1.6X4. .1.0.O.] 4 y ",
"E 4XC.H.C.V.C.C.h.y.1X{.&.} } P 9 D i i y G s q C H P ] L E y i u u q F q C ! ' ] ] _ A ~ ( ] / ! ' { E ! ..! ] ~ _ ] ' _ % 3 u ",
"U oXS.H.c./.{.`.$X#XqXc.H.H.n.G.C.k.c.k.z.z.r.:.=.=.2.o.] _ T T / W ! y y w y 4 8 q @ 2 8 8 7 8 w 8   % > > % ; , + O O 2 w s U ",
"_ 2XyX}.z./.iXeX8XwXyXpX-X(.].t.t.s.t.t.s.y.y.r._.^.aX<X4X4X:X>X!.E ' W F f y i G q g D H 8 4 7 & y 4 5 w 3 w 5 t H w r a y E / ",
"P 7XaXeX.XaX9X4X-X+X9X>X8XrX9X>X`.Q.~.].].r.e.3.]. X9XhXF.F.].eX4.F U _ P E U u f s u a D i h g a s G s 0 i u s q y y u U W P ] ",
"W @X9XfXeX6XiXF.c.B 6XyXfX$XsXpXiXB.y.XX].P.}.~.'.6X1X'.F.e.P.U.+.= q ' P e.j.b.c.$.W T / ^ _ Q n k.y.7.n m c L P W U / ~ _ ' ~ ",
"W ,XiXiX3X].5.k.3.b 9X2XtXdX,X>X@XsX9XaX:X9X>XfX,X1.>XfX#X/.].2._ = s T _ h.e.3.B  .lXhXeX/ ] g.D.C.C.f.T.D.4X7XfXN.9XXX1.E E ~ ",
"E >X].&.@.+.[ 8.x &.4.#.$. .U.,.$.o.*.&.Q.`.2XQ.1.| @.*.o.| o.] _ q , u Q O.e.3.b #.8X6X9X+.] '.>.4.4.T.1.3X@XQ.C.t.&.1XdX X@ ..",
"T !.$.P s u u l q G y y s i F 8 y i y u 5 s D i D s s y s y i q D q < 5 E 6X7.n #.}.}  X'...E _._.=XP.4XD.C.7X#Xa.r.:.I.uX_ % ~ ",
"E u ; O % 2   , 4 = ; 2 2 2 ; % 2 - 4 2 % o ; % o 4   , 1 - o > ,   , 3 J J z x _ } @.| #.o.U } o..X7XZ.m.y.T.=Xe.=.*.`.Q.~ % ] ",
"' C s s y r w e w & 5 w & r 5 7 5 3 & 5 r 5 9 4 3 7 9 & & q 5 e 5 3 y w q / k k F 2   + = 2 i E ] _ n x ] ~ ..n x ~ ~ ' E ] > _ ",
"_ ] ] _ P P _ T W ! P E s y s y F y J y 9 i F s s y F 9 J s y s D i y i u R P P Z f s s a f u T T @ ,   2 ; : o 2 >   % ; X ; ~ ",
"f y i s s f y q s y i u F u y J y F y i s s y s s s y y s y s i q y D y i a s a F y i D y i F y q a J a q s u G f i i H D F i u "
};
