/* XPM */
static char *_be3a54d0b1d4db0b1e258426707f2e4[] = {
/* columns rows colors chars-per-pixel */
"64 64 233 2 ",
"   c #391317",
".  c #370C16",
"X  c #3D291A",
"o  c #3D3415",
"O  c #3B092B",
"+  c #3B1327",
"@  c #3D013C",
"#  c #3B0934",
"$  c #330D2B",
"%  c #3C3027",
"&  c #47131A",
"*  c #452B0D",
"=  c #45330C",
"-  c #452D1D",
";  c #472A16",
":  c #443214",
">  c #4D341B",
",  c #483918",
"<  c #55391C",
"1  c #543113",
"2  c #653C1E",
"3  c #440B2C",
"4  c #470B2A",
"5  c #471529",
"6  c #531A2A",
"7  c #430433",
"8  c #440B34",
"9  c #4B0B34",
"0  c #44023C",
"q  c #4B043C",
"w  c #450B3B",
"e  c #4C0B3B",
"r  c #4B0434",
"t  c #52033C",
"y  c #520B3D",
"u  c #560B37",
"i  c #4B1435",
"p  c #4D123B",
"a  c #481836",
"s  c #55123C",
"d  c #5C133C",
"f  c #531C3D",
"g  c #5C1D3C",
"h  c #551833",
"j  c #63193C",
"k  c #610D3E",
"l  c #4B2425",
"z  c #4B2C22",
"x  c #4D242D",
"c  c #4B2C2A",
"v  c #452726",
"b  c #522D24",
"n  c #52242C",
"m  c #532D2D",
"M  c #5A2C2C",
"N  c #572327",
"B  c #4A3427",
"V  c #533523",
"C  c #5C3C24",
"Z  c #54332A",
"A  c #5B342C",
"S  c #5B3B2B",
"D  c #563A26",
"F  c #4D2333",
"G  c #4A2638",
"H  c #522433",
"J  c #5A2435",
"K  c #542B34",
"L  c #5C233C",
"P  c #5B2A3C",
"I  c #56283A",
"U  c #593635",
"Y  c #493533",
"T  c #633A2C",
"R  c #633729",
"E  c #642D3A",
"W  c #642939",
"Q  c #633334",
"!  c #6B3B34",
"~  c #64333B",
"^  c #6C343C",
"/  c #6B3B3C",
"(  c #653937",
")  c #733B3A",
"_  c #6B362E",
"`  c #59421D",
"'  c #4E421A",
"]  c #64431E",
"[  c #5A4325",
"{  c #594528",
"}  c #53473B",
"|  c #624224",
" . c #6C4A2B",
".. c #684728",
"X. c #76492C",
"o. c #6A4635",
"O. c #744434",
"+. c #73433C",
"@. c #774939",
"#. c #71522F",
"$. c #3E0141",
"%. c #3F0148",
"&. c #440144",
"*. c #4B0245",
"=. c #4D0B43",
"-. c #45014B",
";. c #4C014B",
":. c #490B47",
">. c #520445",
",. c #590145",
"<. c #530B44",
"1. c #5B0D43",
"2. c #53024C",
"3. c #5A034C",
"4. c #530B4B",
"5. c #5C0C4C",
"6. c #4A1843",
"7. c #541345",
"8. c #5C1445",
"9. c #541B43",
"0. c #5C1B44",
"q. c #54134C",
"w. c #5B144B",
"e. c #5C1B4C",
"r. c #551A4B",
"t. c #4D0152",
"y. c #470353",
"u. c #540153",
"i. c #5B0154",
"p. c #5C0B54",
"a. c #55015A",
"s. c #5C015B",
"d. c #5D0B5B",
"f. c #540B54",
"g. c #5C1453",
"h. c #5A1853",
"j. c #620C4D",
"k. c #66094A",
"l. c #621C43",
"z. c #63134C",
"x. c #631D4B",
"c. c #681947",
"v. c #620255",
"b. c #630C54",
"n. c #63025C",
"m. c #6A025C",
"M. c #630A5C",
"N. c #6A0B5C",
"B. c #6A0A55",
"V. c #641453",
"C. c #641B53",
"Z. c #6B1B54",
"A. c #6C145C",
"S. c #6C1C5B",
"D. c #671459",
"F. c #73145C",
"G. c #75195A",
"H. c #731354",
"J. c #542242",
"K. c #5D2344",
"L. c #5B2746",
"P. c #5D3344",
"I. c #59234E",
"U. c #642443",
"Y. c #6A2C44",
"T. c #6C2C4C",
"R. c #662749",
"E. c #732A4A",
"W. c #693445",
"Q. c #773848",
"!. c #642352",
"~. c #6B2453",
"^. c #6A2858",
"/. c #712453",
"(. c #742B59",
"). c #782856",
"_. c #783756",
"`. c #5D0163",
"'. c #5A0164",
"]. c #630264",
"[. c #6A0365",
"{. c #640963",
"}. c #6B0C63",
"|. c #64026B",
" X c #6B026C",
".X c #6C0B6B",
"XX c #65096B",
"oX c #72036C",
"OX c #720C6C",
"+X c #760967",
"@X c #6C1364",
"#X c #6D126A",
"$X c #691B61",
"%X c #721363",
"&X c #781669",
"*X c #6D0272",
"=X c #6B0673",
"-X c #730273",
";X c #7B0475",
":X c #750C73",
">X c #7B0B73",
",X c #74027A",
"<X c #7C047B",
"1X c #750B7B",
"2X c #7A0B7B",
"3X c #791474",
"4X c #681273",
"5X c #772765",
"6X c #7B3463",
"7X c #6E2B61",
"8X c #764445",
"9X c #674A47",
"0X c #6C645A",
"qX c #524D44",
"wX c #80542D",
"eX c #853958",
"rX c #83394F",
"tX c #810A6A",
"yX c #811667",
"uX c #83077A",
"iX c #861475",
"pX c #872A68",
"aX c #873366",
"sX c #8C2C73",
"dX c #824256",
"fX c #834A46",
"gX c #7C0483",
"hX c #7A0984",
"jX c #870885",
"kX c #920B86",
"lX c #941488",
"zX c #8E0E8D",
"xX c #A2119B",
/* pixels */
"d.M.`.t.-.0 $.$.i. XuX].{.&.@ @ @ $.&.t.-XoXj.d d 1.3.t.$.$.@ @ @ $.-.t.]. XgXgX+Xm.|.y.-.$.-.-.&.@ $.$.@ &.-.*.s.i.,.u 4 5 4 i ",
"(.Z.}.}.;.-.$.f.].:X X*Xs.u.$.$.@ $.-.`.>XiXaX_._.5X5.*.$.@ -.&.-.-.t.a. X<XgXuX;XoX1XXX&.@ $.-.&.$.%.$.*.2.2.s.].}.c.rXQ.8XQ._.",
"@.^ F.oX:X[.2.3.m. X'.=X`.`.2.*.;.;.`.OX&XpX_.T._././.=.:.4.0 >.*.>.u.s.,XgX<X2XoX:X[.].;.0 $.$.$.$.%.$.i.n.s.[.3X@XQ.O.+.+.8X8X",
"R Q pX+X-X`.].s.s.s.|.|.|.`.i.;.t.u.`.:X&XaX).U.k 8.(.s =.0 ,.t <.>.i.s.*XhX;X-X[.M.3.q s 3 8 8 e w w @ >.v.n. X:X6X) X.! W W & ",
"x.(.l.k.>X X'.`.s.a.].].`.'.u.t.i.u.s.|.OX:Xv.i.[.F.aXs q <.^ ^ W.0.M.`.|.=XOXm.t u ^ ! O.! O.R A A B I e >.i.[.:XaX+.O.N 5 E h ",
"@X5X~.V.OX*XhX'.{.M..X}.3XXX.XXX].n.`.].=X1XoX>X;Xn.^.4 8 W.O.O.+.T.OX=Xa.>.z.l.U.!  ...| ..| | 2 | > U K 9 ;.].OXk.+.< H f R.l.",
"|.OX5X5.:X,XgX XN.G.%X%XpXB.oX-X<X*X*X`.].[.].oX=X{.r.a ~ +.o.< V Q.@X[.e l M o._ X.X. .X.C < ' ; A l b T l p 2.[.A./ o.f h.(.0.",
"hX.X5XC.[. X XOX).eXl.6X(.1.v.oX-X XhX Xa.s.s.].].a.I.+ o.{ U 5 & Y.v.i.H [ ] X.X.X.X.O. .> D B . E i 3 ( b G <.n.D.8XA J.e.^.4 ",
"*X.X(.1.s.[.m.rXfXO.@.Q R.5.v.v.n.n.].XXa.`.`.`.[.m.5X6 T T 9 S.d ~.@Xq.l .. .#.wXX.wXX.] < . P 5 !.M.d.^.5 L.# 2.3.Q.D h f T.4 ",
"].N.5X1.n.+XG.rXX.] ` S P.w.3.i.5.4.2.>.4.3.{.|.[.N.S.9 ! ^ {.:XA.1.h.r.( [ 1 #.X.wXX.X.` *   0.<.S.#X@X~.5 K a 2.>.P.U J g !.w ",
"i.i.1.5.oXuXyXaX@.[ S ( L 1.3.3.9.E ~ ~ W L 2.a.t.b.$Xe 0.u -X-Xb.w.8 F R ..N fX@. .2 ] < b 4 =.i.%XZ.Y.W.l b H u.2.i P h p q.;.",
"i.3.S.b.<XuXiXaXT | m x K.s 3.z.~ 8X+.8XO.W.b.`.a.f.;.0 !.5.OXn.p.C.7 F V C 6 dXo.| T Q M ~ f C.3.D.U.Q Q M V n p.s.q T.K.e -.y.",
"2.f.w.p.<XzX&Xj T > n a I p y r Q.O.R.g Q.).&X Xi.;.;.:.7.q i.2.t.;.*.p T ; J _.o.o.P.y d /.P.F 0.E.M m K U Z x p.m.y !.g.:.;.y.",
"u.2.$XM.iXtXpXQ.Q.Y.0.=.J.$ s T.O.! 8.3.c.).>X Xs.*.@ @ e 0 2.u.u.;.t.q U Z j _.W.P p 3.H.d U - / W.P F f L.B F g.OX3.>.;.;.;.;.",
"s.u.a.{.@X6XQ.rXk.m.oX{.a $ 5 ~ ..! >.@Xk 5X.X Xf.&.8 # s 4.|.:X:X].i.>.J.K j eX5 T.z.N.A.j @.2 o.Q 0.V.M.5.H H j.OX{.t.t.t.*.0 ",
"u.s.`.|.V.aXE.k tXkXjX4X6.$ + Y.+.^ 3.OX<.^.d.a.*.=.I K L e M.].].{.u.q K.5 c.aXl.~.r /./.Q.X...< l 8.N.oXa.f I l.5.p.t.u.t.;.*.",
"i.i.n..XV.pX}.tXkX;X+Xv.6.$ + _.W Z.n.|.<.C.u.t.9 W.o.#.T M U.y p.2.2.q K.y S.sXZ.R.W O.) O. .....A g j. X].D.x.I H r.*.;.;.2.;.",
"i.s.a.{.b.sX-XzX<X[.m.t p $ e 6XG.F.s.].4.h.a.>.Q.fX@.8X@.8X~ 5 <.f.*.q e.<.D.i.V.Y.O.]  .X.C < | U h 5.3X X|.g.J n 6.:.;.;.u.i.",
"s.s.a.a.g.iX,XhX`.[.OXi.0.O ,.+X+X:XXX}.>.>.a.@XeX) Q.).E.Q.) W u >.2.*.e.w.M.,.9 M O. .1 C ; Z X U f w.{.s.].@X8.9.&.%.t.t.2.3.",
"s.s.'.a.d.M.hX,X|.=XXX'.4.<.i.[.1X-X|.a.i.3.i.F.eXk pXH.~.U.) Q L 0.*.t.e.7.%Xv.Y.R ..2 b l v P   P.6.q.u.{.].OX5.e.-.y.a.a.3.5.",
"m.N.|.`.s.v.1X[.].[.|.=Xd.a.[.1XXX|.'.a.2.,.c.pXkXlXiXyXL ~ H P.U K e ;.e.4.@X>.r Q +.R F 8 =.=.9.^.<.g.f.].`.n.1.x.;.t.f.5.1.j ",
"aXZ.%X{.i.{.[.s.[.n.|.=X4X'.n.a.i.;.a.a.M.S.rXaXtXkXtXpXW W.g P.c v F i f r.;.t.y T.N W e g.d.a.*.q.>.p.i.a.`.M.h J <.i.S.aX_.Q.",
"O.! T.C.i.{.s.n. X-X,X].u.&.&.2.=.*.].XXD.E.eXrXeXrXQ.W.g q d.7.+ z c b } x q.t.p.H.c.R.h.2.s.s.|.oXn.n.s.t.t.q M R c.Z._.fX@...",
"2 _ o.L.d.a.s.[.;XjXgX[.t.0 # T.Y.8.s.{.S.rXrXN N +.C U e g.$Xe x - D `  .S w 2.p.A.z.z.p.a.`.].[.1X X].a.y.;.7 b _ _.eXdXQ.+.o.",
"^ ( A J g..XoXoXuXuX<X X2.O Y._ Q K.t.{.H.eXrX6 M ! S n 3.@Xp v - , , , ' C ~ s d.{.F.N.:X X*X<X1X*X1X|.a.%.y.0 _ O.fXeXH.H.H.E.",
"t 9 K F e.v.oXuX;X2X].>.0 9 W.l & L.f.d.B.aXdXQ.Q.Y.l L b.S.P.B : : X U C b M T.r.$Xm.[. X;X<X*X'.`.|.u.$.;.f.7.+.O.rXE.tXk.m.H.",
"i.*.i K.e.z.n. X XM.s J / 8X_.p i !.p.M.F.aXeXk e =.8.s C.r.( > : m i 9 u Y.E H x G 3.3X[.].:XXX'.2.>.0 ;.u.B.H.@.O.E.yXc.t m.v.",
":X@Xe.^.T.y OX*X`.t.K.E U ^ t >.<.q.2.d.M.F.pXk.s.].sXpXaX/.l l K P.!.Z./.E.j ~ > c r.b.v.s.{.t.*.e q 0 2.3.+XaXQ.8XeXaXeX_.5.v.",
"n.M.w.^.(.t [.`.a.t.D.8.g ~.v.+X3Xm.t.s..X>XsXuXjXzXuXiXyX).h L 8.x./.0.c.T.h W D B g >.>.2.2.y ^ ) R.<.a.m.%XaXQ.) rX).fX+.).z.",
"n.[.V.6X(.Z.s.a.a.a.i.3.5.$X+X+Xv.3.;.2.`.;X;XlXkXkXuX+XZ./.l.r 3X@X0.6 u (.s Y.{ > H 1.0 <.0 (.W.W <.2.|.>XyXpXpXk.iXpXE.Q.dXj ",
"-XOXD.Z.E.1.v.N.a.a.s.].XX#X$X~.x.J.O 0 n.jX<XjXiX+XB.z.W.P.Z.M.>X:Xg.9 <.Z.s P Y B G p t x.p ^.5X%XOX1XuXuXtXsXtXlX;X>XiXiXQ.! ",
" X:X5.(./.c.B.+Xd.a. XuXjX3XC.L l P.f e.[.<XjX+X).eXeXL b U i.jX<X Xb.=.M.M.w.Y.U c J.9.e e 8 7X=X2X,X;XtXuXyXsXuXxX*X,XzXiX^ C ",
"`.&X5.x.c.Z.v. Xa.'.uXxXlXiXT.Q ( I I.t.2X;X&X).Q._ Q m U a >XjX-X2Xa.[.,X1XG.Y.A z J.7.*.0 3 !.].1X2X*X X-XZ.pXuXzX-X].>XS.K ' ",
"`.].x.).~.B.[.*X'.|.zXxXlX&X/ S ( T.w.u.2X2XH._.) ;   x U K.2XjX X[.|.1XgX,XH.Y.S Z J.q.f.:.3 x.{.=X X].*XOXZ.pXjXzX-Xs.m.x.B , ",
"[.n.G.6X~.j.>X;X|.*XzXkX&X^ S V 6 /.N.|.gX;X1._.g 9 *.=.U P &X X2.n.|.,XhX.Xe P x I h.d.y.&.3 !.f.a.n.i.|.m.D.pX*XgX|.i.k.l.m , ",
"+Xv.S.5XZ.j.OX-X].<XuXlXk / : > J z.{.].gX2Xy K.q t.XXf.H x 5.a.t.a.|.hX>Xn.:.P.F i 3.a.t.;.9 0.*.f.s.u.i.i.w.$X|.1X|.a.,.u R < ",
"s.>.D.S.C.p.].n.s. XjXuXc.M > B H x.f.a.|.1Xq.x.>.s.[.2.c l # 2.a.'.`.=X>Xn.2.^.r.9 M.s.a.f.y e.2.t.u.>.2.2.=.^.i.[.XX].i.t ^ 2 ",
"2.2.M.D.p.p.u.i.a.[.<XuXB.l.c B O ^.*.i.'.{.w.7X*.].s.0 H x 7 ;.XX'.`.:Xn.s.d.p.x.y %X[.|.`.w.~.3.u.i.a.a.u.=.(.q 3.`.|.[.j.8X .",
"a.a.4Xm.u.t.t.t.a.a.*X*X2XB.P + 3 e.0 t.a.a.w I.@ f.i.*.f f r *.a.t.t.M. X*X].p.8.1.m.-XgXhXg.x.>.n. X*X*X|.u.S.3.>.t.f.u.y 8X..",
"a.u. X].2.;.s.a.a.'.|.|.*Xn.Z.q <.*.>.2.;.t.w J.@ 4.t.$X9.r.0 *.2.t.i.n.-X1X`.M.t z.i.-XjX1X8.K.t j.#XoXhX2Xn.i.3.;.-.-.&.# U ` ",
"i.s.`.].5.3.XX]. X`.'.a.*X-XiX>X2X|.a.a.a.2.=.9.0 ;.t.f.6.p 0 2.*.s.].:X1X*X'.a.4.h.i.:XoXi.i m M ~ Y.x.@XOX>X X[.v.;.;.-.@ U o ",
"n.3.{.@XaXaX@X].1X X|.'.1X>X+X>XOX#X].`.|.t.9 0.*.-.y.;.@ 7.0 *.i.i.oX2X].'.'.d.;.2.i.i.s.}.U.~ [ ..o.W.5X#X-X X;X[.s.2.;.@ B o ",
"2.i.b.sX).E.^.g.m.n.oXoX>X+XaXQ.~ Y.B.[.>X].r p *.;.t.*.# 9.&.f.`.].s.].`.a.t.a.u.t.t.i.n.}.Z.T. .| U 5 ^.d.:X-XuX-X>Xn.2.r B = ",
"a.*.S./.k 1.T.<.i.].iX+XB.aXrXO.1 Q 5.n.[.v.4 9.w 0 =.7 5 I.2.a.`.].[.|.s.a.a.t.t.t.t.`..Xm.5XeX/ Q f O ^.i.:X<XuX-X,X[.n.q l * ",
"t.p.V.5XB.F./.V.OX:XH.6XeX_.Y._ C M >.a.i.>.3 I 5 Q ( S A (.OXjX].`.].oXoX Xn.s.t.a.a.i.v.H.G.G.c.Z.<.&.u.n. X<X*X|.|.[. Xf.i   ",
"-.;.7.S.+Xv.&XB.[.=XD.T.L Q.h 9 W J >.{.d.*.3 H U o.] ` 2 Q.iXzX2Xs.2.B.;X<X*X].i.t.s.i.Z.aX(.5XA.@X*.&.*.v.+XiX X].`.|.hX|.7.. ",
"d.-.e ^.m.;X2XoXgXzXn.5X3.%X>.>.2.V.b.#Xd.2.7 E @.#.#.] 2 ) tXzX&X6XU.s iX<X-X2X.Xa.m.G.) Q.j H.M.3.7 8 i W ).G.OX|.[. XhX=X4.# ",
"-.f.O x.OX<X<X*XhX,X[.i.>X].i.].4X3X{.}.{.>.r W.@.X. . .X.) k.iX%X5XQ.L OX-X;XoX|.s.j._.O.O.J c.5.4.9 P b _ rXaX@X X1X*X,X|.:.w ",
"t.0 8 I.n. X[.s. X2X].n.2.a.[.|.iXM.@Xd.s.b.4 ) X. . .`  .O.Q.H.iX+XE.T.5.+XoX;X*Xm._.O... .o.8X9 l.L./ C #.@.E.5..X-X*X,X1X4.e.",
";.w # 9.2.].s.s.s.[.s.s.M.`.s.XXi.M.d.#XM.>._.+.] 1  .2 C o.+.rXtXtXE.T.Z.v.+X[.|.H.Q. .| C T E 6Xl.g 8X@.o.T J >.s.,X,X,X:X5.e.",
"-.@ # 6.*.t.u.t.s.`.XX|.a.`.s.>.O C.;.d.=.8 K 8X` ` ' = ' S C / k H.c./.~.q 2.2.w._.8XW _ 6 r 2.s.N.8.E.I & C Q ,.[.hXhX-XoXB.V.",
"0 # $ 6.&.;.t.t.t.t.`.'.'. X[.;.7 f p 8 P W.8Xo.] ] 1 ` < V D b T.aXl.T.L 3 :.=.e _.T.g j 4 q f.i.F.l._.Z.7.( J j.>X=X{.3.B.5.q ",
";.@ # # $.-.;.2.n.].`.].[.n.n.2.=.f l Z o.U Y B ` = [ S Z m c K P.P.( { { c O # e ^.@Xb.x.5 Q ~ ^ M b W.A.F.d x..X#Xx.W.P i O J.",
"-.0 @ w :.;.u.s.].[.}.F.A.B.S.b.0 f B ..V D c X { = | b K & 3 9 7.f D < [ D U I 8 $XXX4X!.6 M T A > - W.F.}.e !.}.5XT.o.U c a 9.",
"&.0 -.;.2.n.[.oX>XF._.8XQ.8X_.0.D.4.c V { l   G F   > V m 4 &X].n.,.M * > > < b $ h.f.f.^.0.h P   m c P.d.t.8 9.B.k.8.P S U 8 0 ",
"*.-.;.;.a.m.uXkXiXG.Q.U U U ~ _.@X>.K ..l + + p f + M K F 1.;XjXgX@XN > X ; < B 5 q.-.t.w.x.h L & F v 8 2.d.a 9.B.v.j.K.B B w ;.",
"y.y.2.2.s.=XgXkXiXsX,.B.i.z.U.T.p.>.W / g 7 7 0 0.8 w w r.*.*XjX2X@Xx - v . Z x e ;.t.-.e.7.s 9.3 K I + f.#Xe 8.i.i.>.L.B B w :.",
"y.-.t.;.u.M.>XiX,.).m.oXoX%Xc.R.B.i.s j z.3.f.C.9.8 h.f.r.:.[.<X*XM.5 v # # v x q u.f.t.7.8 e w.4 P.L.r.;.>.r C.a.'.<.3 S S P.w ",
"y.-.;.>.t d l.E.c.x.5X5X>Xm.z.S.n.n.q.q.#XOXt.4.G + a w 6.q.s.[.`.t.# 9.;.7.v v =.a.t.*.J.p ;.>.9 ).z.5XK.3 i 0.{.u.u ) wX../ Y.",
"%.@ &.<.j dXQ.Q.j x.5.3.k.D.p I.z.$X<.0 i.s.*.6.G x x G G 6.7.1.2.=.$ 6.q.=.c X 0 n.i.>.e.4.d.2.x.Y.Z.0.5 c + f e <.E fX_ _ ! J ",
"G 8 w w._.Q.T.(.6Xq.m.A.c.6 c z X z H 5 e x.i F L K b D Z c z z l x l l F + - v *.[.n.n.OXOX3Xb.5 c l z , : - z c l O.fXQ 6 h n ",
"% G h U.Q.3 f 0.I.!.<.8.F Z , : , , B P I H x c ( M D C { ..< ' < > < > z % % v h.D.5.b.@X#X$XI.K B D , ' ' ' { {  .#.R E G v x ",
"% B v v P.F x.3 U l l x U D o.{ { { } Y Y c B B , ' #.o. .o...{ { ' [ [ D { B B K I x Y G G G Y Y B V {  .] #.{ {  .| > % % % % ",
"0XY B B c F f H l : : ; - z ; : o o B } 0X0X9X: = = = o ; 1 b ; : , * * : X : o - % o % qX9XqX} Y - - : * 1 * : o = * ; X % qX0X"
};
