/* XPM */
static char *redbrick[] = {
/* columns rows colors chars-per-pixel */
"64 64 250 2 ",
"   c #141D1C",
".  c #1D1E1B",
"X  c #191D17",
"o  c #0F1F15",
"O  c #2E0000",
"+  c #340201",
"@  c #3C0101",
"#  c #390309",
"$  c #3D0A07",
"%  c #251C1B",
"&  c #2C191C",
"*  c #281916",
"=  c #14221A",
"-  c #19221E",
";  c #15291D",
":  c #1B331B",
">  c #21221C",
",  c #2B201D",
"<  c #262B1E",
"1  c #27271B",
"2  c #30251C",
"3  c #31301E",
"4  c #2E331D",
"5  c #1F1E25",
"6  c #241D23",
"7  c #2C1D23",
"8  c #211F2B",
"9  c #142322",
"0  c #1B2324",
"q  c #1D2B24",
"w  c #1C2728",
"e  c #1D3130",
"r  c #232323",
"t  c #2C2424",
"y  c #252C26",
"u  c #2B2C24",
"i  c #24252A",
"p  c #2C262C",
"a  c #242C2B",
"s  c #2C2B2C",
"d  c #332426",
"f  c #322A24",
"g  c #32262B",
"h  c #332B2C",
"j  c #392C29",
"k  c #243225",
"l  c #293125",
"z  c #24312B",
"x  c #2B322D",
"c  c #29392F",
"v  c #33342D",
"b  c #3B332C",
"n  c #343C2D",
"m  c #393021",
"M  c #252D32",
"N  c #2C2D33",
"B  c #2D2B3B",
"V  c #2A2532",
"C  c #342D33",
"Z  c #3A2A35",
"A  c #322C39",
"S  c #332731",
"D  c #233233",
"F  c #2A3234",
"G  c #2C3A34",
"H  c #2D333A",
"J  c #253639",
"K  c #333434",
"L  c #3B3434",
"P  c #343B34",
"I  c #3A3B35",
"U  c #34353A",
"Y  c #3B353B",
"T  c #343B3B",
"R  c #3C3B3C",
"E  c #440101",
"W  c #4C0201",
"Q  c #430903",
"!  c #45010A",
"~  c #4E030A",
"^  c #4A0A05",
"/  c #540201",
"(  c #5B0201",
")  c #540901",
"_  c #5A0901",
"`  c #53010A",
"'  c #5D020A",
"]  c #5D090B",
"[  c #571100",
"{  c #640101",
"}  c #6C0201",
"|  c #630A01",
" . c #6B0A01",
".. c #64030A",
"X. c #6B010A",
"o. c #650909",
"O. c #69080F",
"+. c #730101",
"@. c #7B0201",
"#. c #740900",
"$. c #790900",
"%. c #74020A",
"&. c #7D020A",
"*. c #72090E",
"=. c #750511",
"-. c #690416",
";. c #463D1E",
":. c #442F35",
">. c #423435",
",. c #403A35",
"<. c #43343B",
"1. c #423A3C",
"2. c #493939",
"3. c #493A37",
"4. c #2D423A",
"5. c #33423B",
"6. c #39483A",
"7. c #354A32",
"8. c #42443C",
"9. c #4C453C",
"0. c #454C3D",
"q. c #494938",
"w. c #53483C",
"e. c #46533F",
"r. c #2C3B42",
"t. c #3B3442",
"y. c #343D41",
"u. c #3A3C43",
"i. c #333542",
"p. c #443C42",
"a. c #4B3C45",
"s. c #433245",
"d. c #533C43",
"f. c #533D4F",
"g. c #2F4141",
"h. c #354343",
"j. c #3C4343",
"k. c #3D4944",
"l. c #3D464C",
"z. c #3D4A4A",
"x. c #344847",
"c. c #3D5149",
"v. c #3D4C54",
"b. c #3F5958",
"n. c #444444",
"m. c #4B4444",
"M. c #444A43",
"N. c #4B4A44",
"B. c #45454A",
"V. c #4A454B",
"C. c #444B4B",
"Z. c #4B4B4B",
"A. c #524345",
"S. c #534B46",
"D. c #51454B",
"F. c #534B4C",
"G. c #5D4C4D",
"H. c #4A5246",
"J. c #44524C",
"K. c #4C534C",
"L. c #465649",
"P. c #5B5646",
"I. c #52534D",
"U. c #5A544D",
"Y. c #505A4D",
"T. c #59594A",
"R. c #4B4452",
"E. c #454D53",
"W. c #4C4C52",
"Q. c #474855",
"!. c #524B51",
"~. c #5B4C54",
"^. c #5D4D58",
"/. c #445453",
"(. c #4C5454",
"). c #4C5A53",
"_. c #4E5459",
"`. c #485B59",
"'. c #535353",
"]. c #5B5353",
"[. c #535953",
"{. c #5A5954",
"}. c #53545A",
"|. c #5A545B",
" X c #5C5A5A",
".X c #545A58",
"XX c #635658",
"oX c #635054",
"OX c #65625D",
"+X c #555661",
"@X c #4C5167",
"#X c #5F6666",
"$X c #6C6565",
"%X c #676567",
"&X c #840101",
"*X c #8B0101",
"=X c #830902",
"-X c #84020A",
";X c #8B010A",
":X c #8C0909",
">X c #870904",
",X c #940102",
"<X c #9C0102",
"1X c #940801",
"2X c #9A0A03",
"3X c #95020B",
"4X c #9C020A",
"5X c #9D090B",
"6X c #950B09",
"7X c #810310",
"8X c #9C0311",
"9X c #940612",
"0X c #83100D",
"qX c #A40102",
"wX c #AB0102",
"eX c #A30901",
"rX c #A4010A",
"tX c #AC010A",
"yX c #A90907",
"uX c #B40201",
"iX c #BB0201",
"pX c #BD0902",
"aX c #B20109",
"sX c #BB010B",
"dX c #B20A07",
"fX c #A50312",
"gX c #AB0312",
"hX c #A90A15",
"jX c #B20112",
"kX c #C30101",
"lX c #CB0101",
"zX c #C3010B",
"xX c #CC030C",
"cX c #C80A01",
"vX c #D40101",
"bX c #DB0102",
"nX c #D30902",
"mX c #D3030A",
"MX c #DB010B",
"NX c #D20C09",
"BX c #CF0113",
"VX c #C30111",
"CX c #D10111",
"ZX c #E30102",
"AX c #EB0303",
"SX c #E4020A",
"DX c #EC010D",
"FX c #F40202",
"GX c #FA0009",
"HX c #EE0010",
/* pixels */
"L I U G t.R L T I 4.v R >.L 5.L I T t.G r.I U Y T L I R K U 1.I c I K 5.L K R I T T R I I R G L G >.R 3.R T T I T G T p.t.5.>.n ",
"@XR P.J.V.q.V.C.|.f.S.x.A.Z.B.).N.b D.N.n.M.F.M.C.'.[.K.|.).F.Z.R.C.D.n.Z.Z.n.Z.oXK.(._.'.I./.R.'.k.B.c Y K V.Z.'.P.9.k.D.n.m.i.",
"n AXAXlXvXcXZXlXvXvXvXCX4XM.0.|.FXZXvXZXMXbXvXvXbXlXbXlXvXxXbXbXnXbXvXSX4XN.4.~.FXAXZXGXAXbXZXbXbXvXMXbXvXlXMXlXCXuXlXuXiXtXjX6.",
"R.FXkXuXuXlX*XqXnX&XlXtX{ q f.+XSXuX1XiX&.iX&XiX&XkX<XuX<XkX&XtX+.iXlXeXX.f Z.K vX2XvXuXkXtXuXlX+.MX+.lXuXvX&.uXqX&.bXqXiXqX&.j ",
"Q.lXeX&.<X*XqX<X+.4X1X .( G w.'.lXiX*X=XrX*X+.tXqX+.<X4XqX .<XqX .tX1X{ / u c.'.mXtXtX+. .qX&X&.*XqX+.*X1X<X1X<X&.&X<X( <X . .u ",
"Z.ZX+.qXqX+.1XqXgX .qX/ @ d B.}.bX*XtXqX&XqX&.<X*X<X .tX .*X&XqX{ 1X&.+.' u n.C.vX| qX{ &X1X .<X+.<X&XqX*XtX+.2X1X+.qX-XuX{ E g ",
"n.mXtX&X&X<X&.qX .*XuX+.@ K N.I.kXuX*XtX-X*X1X4X .&X+.gX&X+.*X&.1X&.rX&.E u 1.C.iX+.tX&.<X*X .qX{ +.3XtX+.<X&XrXtX&XqX( qX3XE z ",
"C.uX&.1XqX+.qX1X .<X+./ @ V B.N.uXlX&XqX+.2X+.tX&.qX{ <X*X .&.tX+.*X&X../ m G R.iX*XtX{ 3XqX .*X .*X*X<X&XqX+.qX&.&X<X&.qX .E A ",
"V.iXqX .*X/  .&./  .&X .E f K |.<X<X .%.W 3X+. .&X .W  .4X{ 1X| W *X+. .@ s G A.aX+. .{ { +.( -XW +./ ;X/ -.W *X .E +.&X+.&X$ p ",
"n.&X(  .{ ~ + E ~ @ @ @ @ g T Q.&.{ ( / / / ( ( { ( { ^ @ ~ @ @ @ E + E @ x 4.m.1X ./ (  .( { ( {  .{ ( ( / / / / ( / ` @ E E h ",
"Q.Z.p f s G p g p d & & q u T F.B.i B L s z X 0 5 6 7 i G   % , 9 h K s h s Z.E.b x Z Z s s G s F M V e & & q . 7 p g B x i l s ",
"e.p.5.L C x.F.C.C.T h.Y T G C.1.Z.c.D.w.n.A.m.U I I K.B.M.p.U <.D.V.a.C.8.S.'.R M.~.'.(.{. XXX%X X|.F.e.9.n.U n.(.G ].Q.8.I.I.Y ",
"FXvXbXvXlXiXuXiXiXiXiXuXlXiXiXqXk.P.9.ZXSXlXnXbXlXbXZXkXvXcXlXlXlXcXiXiXpXkXiXuXuXkXsXtXiXlXqXlXkXuXuXkX4XN.5.oXFXFXlXvXlXZXkXvX",
"tX*X&.dX&X&.aX&X<X&XtX .sX&.8XW 1.k.~.SX&.tXmX+.jX( &.sX*X&XzX1X4X&X&.&.rX&XrX*XtX&.lX{ kX*X<XaXxX1XlXtX@ T V.T ZXkX0XuX0XtX1XuX",
"*XqX1XqX&X&X$.{ qX:X .&X<XqX .@ h Z.B.lXtX .<X&.tXqX=XqX/ rX+.{ *XtX+.tX&.rX .qX<X&X .<X&XqX&.*X<X&.qX .E I Z.I.kXiX+.<X&X*XtX1X",
"{ tXqX*X1X .qX&.1X&X1X .qX&X&.E i T B.ZX+.rX*X<X&.*X+.&X*X+.qX*X) aX*X&.{ &.&.*XqX( *X&XtX+.<X .tX<X{ +.E u h.Q.lX&XuX1XtX&.<X&.",
"qX&.&X<X&.&X+.&X*X4X1X .tX{  .E i <.f.lX .hXtX&.qX( 1XqXX. .<X{ &XtX&X&.&.qX{ qX*X/ qX( rX+.&.+.tX{ tX&.@ s t.m.kXtX&.qX&XtX<X&.",
"+.qX{ tX&.&X&X3X{ rX .&.qX<X+.E s C.[.bXuXW qX+.qX*X{ -X( *X+. .rX&X&X/ &.qX .&X( &XaX{ &XqX+.1XtX .1X+.E 0 x.9.uX&XuXqXW <X&.*X",
" .iX{ +.W &. .qX| 9X{ ( 1X+.{ @ s V.I.eXtX .1XW +.qX .-X..&.&.( +.<X .4X{ 1X+.&.&.{ *X+.&.&XE +.<X .&X+.E 9 T ].tX<X&. . .{ <X{ ",
"@ Q W / @ / E / / / W / / E E E 1.C.Q.2X+. ./ %./  .( { ..{  .{ ( / ( / / / ( ( ' ( ( ( ( / ..W / ( ( @ $ - ~.Y qXX.@ ' W @ _ ! ",
"B f 2 0 N u F - , 9 y C x 0 0 g T B.s.q.Z v s G G d C y U m L r.K s g s 7 = 7 % = f h s ; 6 r = s h d x p K V.(.N.V f f N f g h ",
"@XP.N.y.i.N.(.,.'.<.C.z.<.K R G 9.D._.z.E.V.n.C u.>.R I z.C.F.N.F.g.].m.n.R 4.T x.8.C.Z.~.B.:.T z.C.B.V. XZ.[.R P.p.5.x.(.d.J.C.",
"L.FXFXbXlXbXbXlXvXvXpXkXiXkXuXkXuXiXkXkXuXiXiXiXzXkXtXrX8.(.T.ZXFXlXkXbXlXlXbXlXbXbXMXtXvXiXiXiXkXiXkXiXuXkXuXiXkXuXjXiXkXuXtX0.",
"}.AX&XtXiX&.iX&XuX&XuX&XtX=XtXlX&XiX&XtX1XiXgX .eXlX+.E I R.'.FXiX+.bXtXqX*XtXtX&XtX<XuX .{ <X1X&.&.qX&.&XtX<X*X<X-X*XtX( rX@ s ",
"Y FXuX-X<XqXqX&. .&XrXtX*X1X&X<X&. .rX+.rX&X{ *XqX{ sXE u J.'.vXiX3XqX{ qX{ &.+.<X&X{ qX{ 1X4X{ tX{ qX&.<X;X1X+.qX1X&.<X&X .E p ",
"E.pX( rXtX&.&.( tX{ qX+.tX&X1XtX{ *XqX+.&XtX&X+.&X3X+.~ C (.$XvXkX&XqX&.tX{ qX+.<X<X&XeX&.4X;X{ qX+. .qX2X .1X*XtXqX+.rX/ +.@ s ",
"A.uXtX*XqXE qX/  .*XqX&.+.0XtX&X&. .&XrX .qX1X/ tX ./ @ s /. XvX| tX{ 9X&Xo.*XrX+.4X{ 1X{ &XqX+.*X .1X&XqX1X<X{ qX&.&XqX+.&.E v ",
".XiX+.| tX^ *X&.tX_ eXW <X .qX&X .&X1X&.{ fX .&X&X&.sX@ N W.'.vXxX+.<X+.tX&X<X&.{ qX{ 4X( +.%.W fXE qX' qX+ rXrX*X( / +.&X..! w ",
"n.xXqX{ { %. .( +./ &.%.*X..&X{  .1X&.+./ +.3X .*X{ +.E s K L.CX<X&.3X .&X{  .+.&X+.( 1X .&.W qX( +.4X/  .1X@ tX( 4XW rX+. .E b ",
"n.yX<X{ =.( { X. .( (  . .(  .{  .E E E ( / W ( ` ( E + s a.F.<X{ _ { (  .{ ( +.( (  . .{ +.W { / / ( / / { ( / / ( W / ;X/ E , ",
"C.8.>.u q j l V N p s C C N p V g u s x Y G I f y : d C k 3.F.K.d i v j r s G p 6 i r . 0 k 1.G R e % 8 - V x i N i p C s K e Z ",
"]._..X(.[.V.Z.U x.3.R h C.K.$X%X(.~.'.V.D.C.x.1.Y 1.y.u.L k.'.B.F.M.).K '.F.J.V.p.G h.L a.m.}.].m.N.u.>.p.n.F.m.].6.'.k.M.Z.F.5.",
"uXkXkXuXkXuXkXiXiXiXrX3.T |.vXbXvXvXlXvXvXvXkXiXuXkXiXiXlXdXiXkXkXtXiXiXiXiXuXqXE.F.[.lXZXMXbXvXbXlXvXvXvXvXuXkXiXiXiXuXkXuXiXiX",
"qXuXqXuX<XzXuXqXxXrX@ T M.T kXtX .<X$.qX<X( qX*XqXtX .qX*X( rX<X( qXtX+.qX&X<X~ U F.G.vX<X&X<X .tXqX_ <X*X>X+.<X$.tX*XqX&X<X .qX",
"<X&.&X1X1XtX&.qX&.+.W G 3. XvX..qX&X&XqX=XqX<X .qX*X*X{ &X3XqX*X{ tX .&XqX( 1XE R K.].xX2X/ <X+.tX&X&.qX;XqX&X*X&X1X&.1X&X1X*X&X",
"1X&.1XqX&.tX&.<XqX .@ K Z.:.lX( <XtX&.*XtX+.tX{ <X*XtX( qXW *X&X1X:X+.<XtX&.qXE Y ).$XbX<X&XtX .tX&.qX&.tX<X$.qX .<X&X1X<X&.tX .",
"tX&X&.1X1XqX1X&.1X+.@ y.n.{.bXqX( qX&.qX+.( 1X1X1X&.+.&XyX( 4X;X+.<X*X .*XtX&.@ I K.XXxX&XtX<X+.tX/ aXqX&.&XtX&.qX1X1X4X<X&. .&X",
"<X&.&XtX&XqX+.1XqX+.E G M.x.vX_ qX&X[ *XaX .&X&XrX&X4X+.&XW  .<X{ <X4X+.<X&.<X@ T N.`.cXqX&.qXqX+.qX*X*X&.<X&.1X .1X*XqX+.1X<X+.",
"+.&.&X1X{ &.<X . .&.+ 5.Z.C.eX( qX1X( qX*X{ <X .<X .qX/ *X{ tX&X( *X+.*XqX( &XE s M.'.kXtX) <X+.1XtX&X<X&XqX&.uX&.<X .*X .uXfX{ ",
"E + / W W W / W W @ W s a.R.qX%. .{  .{ ( { { +.( ( ( / { / W ( ' / ( ' ( / W @ N A.B.tX(  .{  . .{ {  . . .{ ( { / +.' / / ( E ",
"i v V s i g u B C q s Z z._.S.y 6 5 % i k F L R I V w = 0 & - G h y K g r N 4 p U m.D.V.x u J s <.L B.I V y 0 & 0 V N V F u u B ",
"@XN.].4.N.I I B.9.x.b L T S.x.>.I L M.C.a.m.C.(.).d.F.I I I U.n.M.J.D.7.V.y.D.T z.I.(.B.).I |.a.`.[.%XF.[.d.k.I ].8.P.9.}.Y L.G ",
";.ZXbXvXZXvXlXbXMXuXiXiXiXzXiXiXiXiXpXiXiXiXiXkXkXiXqXiXiXiXkXqXY ].L AXDXlXbXvXvXlXbXxXvXiXiXiXtXlXxXiXuXpXkXiXiXzXuXlXsXuXrXw.",
"}.mXqX&.&.hX( qXrX+.1XqX*XrX{ &XrX( <X;XqX&.qX{ qX{ qXjX+.+.3X+ U c.~.ZXuXqX .qX( tX( qX&.qX( <X&X/ 1X1X .<X*X&.qX$.1X .1XqXE N ",
"C.bXtX .qX&. .uX&X4X&.tX{ &X) qX1X' eX( &X9X&. .1X&XtX+.<X&.<XW V 9.F.cX*X<X| &X{ &./ +.( 1X%.qX{ 1X{ <X .4X .rX&X&XqX1X .-XE C ",
"B.vX&X{ tX{ 3X . .qX( qX&.+.1XtX{ <X;X*X( &XtXE 1X/ 1X{ &X&X .W g 4.m.lX*XqX{ { &XqX&X/ <X-X( qXtX( qX+.+.qX .qX&.rX+.&. .<X+ p ",
"I lXuX;XqX&X{ 4X1X+.tX<X-XtXW &.rX( qX( 1XtX( qXeX&XqXtXtX+.&.@ s I V.vXhX{ rX*X .tX/ uX+.1X+.&./ &X{ <X&.&X1X*X<X&X .tX1XuXQ i ",
"(.mX<X( *XqX{ qX{ <X( qX{ tX+.tX{ { rX/ *X .tX+.*X' <X_ *X{ rX@ > T _.bX<X{ ( qX( &.( 1X( tX/ 1X{ 4X{ 1X+.<X+.&XqX+.1X&.{ +.+ C ",
"n zXtX{ qX{ 1X+.1X*X&XtX&.1X*XqX1X{ -X&./ +.rXW qX{ <X&.<X&.<X@ % T ).vX .tX{ &X{ qX/ &.qX&.( <X+.-X{ <X{ tX+.8X&X*X .qX{ tXE u ",
"P.4X{  .( / ..{ ( {  .^ E W / E W W ( / W W E W W / / E W W Q E k C.F.tX/ +./ { { {  .( | { ` / ( / / / Q W ) W W W W W W E O h ",
"r.w.s < s b t G h s i h x R Y i 0   X   F C N 6 - * * F 2 y 5 f A B.u.M.V C N N F p , r % l F I K p 6 B S V N . % 5 u e m N z B ",
"|.I ~.R S.E.G.z.a.N.C.oX%X$X'.J.~.n.P.J.'.6.m.L I K n.z.].n.V.5.A.n.F.7. X3.m.M.B.z.M.M.0.H.~.|.'.b.0.m.N.a.T K , 9 Y U A.V.[.n.",
"vXxXvXxXbXkXkXkXdXiXuXkXsXiXiXlXkX<X9.}.m.DXAXvXvXvXkXlXvXMXvXiXuXiXVXuXuXiXaXkXiXvXkXiXiXjXfXq.R ~.HXvXkXbXvXbXiXkXiXuXkXuXkXiX",
"&XtX' <XqXX.<X/ qX&XkX&.<X_ <X+.4XW F v.Z.vXqXqXtX2X .tXW tX$.qX| qX( tX1XqX .qX .<X/ <X+...E Y 8.}.lXqX .*X4X{ qX+.4XX.<X .<X .",
"<X+.&XqX+.qX{ 1X&.+.<X/ &.( 1X .*XW f x.G.bX&.<X .<X+. .W +.<X$.1X1X{ 1X1X{ &.&X+.7X( 2X{ rX@ I F.~.bX+.<X( fX{ tX{ &XuX+.<X1X/ ",
"tX+.( &.qX..1X .&.4X&.{ qX&X{ 3X+.E u C.g.vX&X&.+.qX{ ;X .qX( qX/ qXtX' qX{ qX{ &X( &X*X .+.@ s z.}.kXo.<X+.+.tXqX*X+.*X . . .-X",
"+.<X( <X{  .4X{ <X&.qX/ &.&./ qX{ E i /.1.vXfXW +.<X{ tXW qX&.<X( tX .*X+.+.<X{ qX*X/  .1X( E p z.|.ZXqX{ ( qX*X+.{ aX .tX+.{ qX",
" .tXo.<X{ rX .*XqX{ tX&X/ 3X<X&X*XE u A.R NXE qXqX| rX+.| ;X( &.W 1X{ qX{ &.&. .&.&.( ;X .{ @ x F.n.kX| <X&X2X+.qX1X+. .^ qX+.1X",
"{ uX&X+.{ <X4X( <X+. .^ jX( rX( 1XE x C.M.MX/ tX+.qX+.&.+.*XE 1X .&X/ rX+.( qX&.{ qX) qX( *X@ h >.l.MX%.rX{  .( tX( 3X ./ +.tX/ ",
"+.1X^ tX(  .&X .&.+.qX( qX(  .1X&X@ z v.}.lXrXE { tX .1X..*X{ <X .qX{  .tX{ &XqX .3X .&. .*XQ t I m.kX(  .` rX( qX+.qX&.<X .<X .",
"` / E / / E / W ^ E / W E ^ ( E @ E g V.M.qX@ ~ E @ E @ W ( W / E ^ ` W / E ^ / W / E E / @ @ 0 z.P.4X@ # ( W W ( W W / ( @ ! / ",
"u v C q g G i s u N g x s i h N x N h 0.Y.N.K v K y v N u s y s u s y h x h , - -   , 5 < 6 0 i p.a.(.z s 2 c V i = r 6 . 5 B y ",
"K '.y.}.R y.L Q.~.6.Z.m.].I.5.V.m.B.A.I.oX_.+XI.C.V.V.'.C.B./.'.!.p.R z.x.Z.C.L 5.p.p.T a.B.p.<.6.{.B.V.K {.8.E.Z.Z.I U 6.~.8.Z.",
"[.K.[.~.'.}.P.'.Q. XF.).[.'.'.'.].).`.+X'.'.].+X'.'.).'.G.'.].I.'.`.[.~.|.(.~.[.I.I.'.I._.I.'.K.}.'.I.}.].(.].].'.(.].U.b.].'.'."
};
